%TF.GenerationSoftware,Altium Limited,Altium Designer,20.2.5 (213)*%
G04 Layer_Color=128*
%FSLAX44Y44*%
%MOMM*%
%TF.SameCoordinates,3FE501F2-1E46-4B48-ABA6-5278C61F2325*%
%TF.FilePolarity,Positive*%
%TF.FileFunction,Drillmap*%
%TF.Part,Single*%
G01*
G75*
%TA.AperFunction,NonConductor*%
%ADD123C,0.1270*%
D123*
X335700Y583000D02*
X342700D01*
X339200Y579500D02*
Y586500D01*
X393500Y583000D02*
X400500D01*
X397000Y579500D02*
Y586500D01*
X632500Y226600D02*
X641500D01*
X637000Y222100D02*
Y231100D01*
X632500Y201200D02*
X641500D01*
X637000Y196700D02*
Y205700D01*
X632500Y175800D02*
X641500D01*
X637000Y171300D02*
Y180300D01*
X632500Y150400D02*
X641500D01*
X637000Y145900D02*
Y154900D01*
X632500Y125000D02*
X641500D01*
X637000Y120500D02*
Y129500D01*
X632500Y99600D02*
X641500D01*
X637000Y95100D02*
Y104100D01*
X55500Y424800D02*
X64500D01*
X60000Y420300D02*
Y429300D01*
X55500Y450200D02*
X64500D01*
X60000Y445700D02*
Y454700D01*
X55500Y475600D02*
X64500D01*
X60000Y471100D02*
Y480100D01*
X55500Y501000D02*
X64500D01*
X60000Y496500D02*
Y505500D01*
X55500Y526400D02*
X64500D01*
X60000Y521900D02*
Y530900D01*
X408642Y211724D02*
X434642D01*
X421642Y198724D02*
Y224725D01*
X281642Y211724D02*
X307642D01*
X294642Y198724D02*
Y224725D01*
X314000Y199000D02*
X326000D01*
X320000Y193000D02*
Y205000D01*
X339399Y199000D02*
X351399D01*
X345399Y193000D02*
Y205000D01*
X364797Y199000D02*
X376797D01*
X370797Y193000D02*
Y205000D01*
X390196Y199000D02*
X402196D01*
X396196Y193000D02*
Y205000D01*
X390242Y224424D02*
X402242D01*
X396242Y218424D02*
Y230424D01*
X364844Y224440D02*
X376844D01*
X370844Y218440D02*
Y230440D01*
X339445Y224440D02*
X351445D01*
X345445Y218440D02*
Y230440D01*
X314046Y224440D02*
X326046D01*
X320046Y218440D02*
Y230440D01*
X557600Y349750D02*
X567600D01*
X562600Y344750D02*
Y354750D01*
X586000Y363600D02*
X596000D01*
X591000Y358600D02*
Y368600D01*
X557600Y377450D02*
X567600D01*
X562600Y372450D02*
Y382450D01*
X586000Y391300D02*
X596000D01*
X591000Y386300D02*
Y396300D01*
X557600Y405150D02*
X567600D01*
X562600Y400150D02*
Y410150D01*
X586000Y419000D02*
X596000D01*
X591000Y414000D02*
Y424000D01*
X557600Y432850D02*
X567600D01*
X562600Y427850D02*
Y437850D01*
X586000Y446700D02*
X596000D01*
X591000Y441700D02*
Y451700D01*
X557600Y460550D02*
X567600D01*
X562600Y455550D02*
Y465550D01*
X560800Y530100D02*
X592800D01*
X576800Y514100D02*
Y546100D01*
X560800Y280200D02*
X592800D01*
X576800Y264200D02*
Y296200D01*
X616000Y40000D02*
X648000D01*
X632000Y24000D02*
Y56000D01*
X24000Y40000D02*
X56000D01*
X40000Y24000D02*
Y56000D01*
X24000Y611000D02*
X56000D01*
X40000Y595000D02*
Y627000D01*
X616000Y611000D02*
X648000D01*
X632000Y595000D02*
Y627000D01*
X351844Y587650D02*
X358956D01*
X355400Y584094D02*
Y591206D01*
X411444Y510000D02*
X418556D01*
X415000Y506444D02*
Y513556D01*
X342444Y531000D02*
X349556D01*
X346000Y527444D02*
Y534556D01*
X504044Y220000D02*
X511156D01*
X507600Y216444D02*
Y223556D01*
X182444Y389000D02*
X189556D01*
X186000Y385444D02*
Y392556D01*
X335444Y618000D02*
X342556D01*
X339000Y614444D02*
Y621556D01*
X157589Y418231D02*
X164701D01*
X161145Y414675D02*
Y421787D01*
X251444Y341000D02*
X258556D01*
X255000Y337444D02*
Y344556D01*
X249544Y366100D02*
X256656D01*
X253100Y362544D02*
Y369656D01*
X318444Y488000D02*
X325556D01*
X322000Y484444D02*
Y491556D01*
X282953Y504491D02*
X290065D01*
X286509Y500935D02*
Y508047D01*
X170444Y545000D02*
X177556D01*
X174000Y541444D02*
Y548556D01*
X188444Y555102D02*
X195556D01*
X192000Y551546D02*
Y558658D01*
X151444Y275000D02*
X158556D01*
X155000Y271444D02*
Y278556D01*
X183444Y308000D02*
X190556D01*
X187000Y304444D02*
Y311556D01*
X217439Y269600D02*
X224551D01*
X220995Y266044D02*
Y273156D01*
X250444Y272000D02*
X257556D01*
X254000Y268444D02*
Y275556D01*
X218444Y392000D02*
X225556D01*
X222000Y388444D02*
Y395556D01*
X283168Y441276D02*
X290280D01*
X286724Y437720D02*
Y444832D01*
X169444Y450000D02*
X176556D01*
X173000Y446444D02*
Y453556D01*
X518444Y192000D02*
X525556D01*
X522000Y188444D02*
Y195556D01*
X538441Y193998D02*
X545553D01*
X541997Y190442D02*
Y197554D01*
X480444Y393000D02*
X487556D01*
X484000Y389444D02*
Y396556D01*
X185444Y499000D02*
X192556D01*
X189000Y495444D02*
Y502556D01*
X565444Y64000D02*
X572556D01*
X569000Y60444D02*
Y67556D01*
X412444Y341000D02*
X419556D01*
X416000Y337444D02*
Y344556D01*
X274444Y352000D02*
X281556D01*
X278000Y348444D02*
Y355556D01*
X113444Y426000D02*
X120556D01*
X117000Y422444D02*
Y429556D01*
X125444Y449000D02*
X132556D01*
X129000Y445444D02*
Y452556D01*
X441444Y409000D02*
X448556D01*
X445000Y405444D02*
Y412556D01*
X561444Y230000D02*
X568556D01*
X565000Y226444D02*
Y233556D01*
X464444Y185000D02*
X471556D01*
X468000Y181444D02*
Y188556D01*
X508444Y154000D02*
X515556D01*
X512000Y150444D02*
Y157556D01*
X98444Y500000D02*
X105556D01*
X102000Y496444D02*
Y503556D01*
X116444Y398000D02*
X123556D01*
X120000Y394444D02*
Y401556D01*
X267444Y268000D02*
X274556D01*
X271000Y264444D02*
Y271556D01*
X296444Y428000D02*
X303556D01*
X300000Y424444D02*
Y431556D01*
X413444Y388000D02*
X420556D01*
X417000Y384444D02*
Y391556D01*
X283444Y372400D02*
X290556D01*
X287000Y368844D02*
Y375956D01*
X536444Y137000D02*
X543556D01*
X540000Y133444D02*
Y140556D01*
X252444Y396000D02*
X259556D01*
X256000Y392444D02*
Y399556D01*
X239444Y551000D02*
X246556D01*
X243000Y547444D02*
Y554556D01*
X244444Y500000D02*
X251556D01*
X248000Y496444D02*
Y503556D01*
X589444Y117000D02*
X596556D01*
X593000Y113444D02*
Y120556D01*
X260444Y233000D02*
X267556D01*
X264000Y229444D02*
Y236556D01*
X135444Y370000D02*
X142556D01*
X139000Y366444D02*
Y373556D01*
X548444Y101000D02*
X555556D01*
X552000Y97444D02*
Y104556D01*
X122500Y226250D02*
X126500D01*
X124500Y224250D02*
Y228250D01*
X152750Y226250D02*
X156750D01*
X154750Y224250D02*
Y228250D01*
X167750Y226250D02*
X171750D01*
X169750Y224250D02*
Y228250D01*
X182750Y226250D02*
X186750D01*
X184750Y224250D02*
Y228250D01*
X122750Y209750D02*
X126750D01*
X124750Y207750D02*
Y211750D01*
X152750Y209750D02*
X156750D01*
X154750Y207750D02*
Y211750D01*
X167750Y209750D02*
X171750D01*
X169750Y207750D02*
Y211750D01*
X182750Y209750D02*
X186750D01*
X184750Y207750D02*
Y211750D01*
X107750Y189000D02*
X111750D01*
X109750Y187000D02*
Y191000D01*
X107750Y164000D02*
X111750D01*
X109750Y162000D02*
Y166000D01*
X129500Y168500D02*
X133500D01*
X131500Y166500D02*
Y170500D01*
X149500Y169500D02*
X153500D01*
X151500Y167500D02*
Y171500D01*
X132000Y66250D02*
X136000D01*
X134000Y64250D02*
Y68250D01*
X149000Y66250D02*
X153000D01*
X151000Y64250D02*
Y68250D01*
X137750Y226250D02*
X141750D01*
X139750Y224250D02*
Y228250D01*
X92750Y199000D02*
X96750D01*
X94750Y197000D02*
Y201000D01*
X137750Y209750D02*
X141750D01*
X139750Y207750D02*
Y211750D01*
X112750Y24000D02*
X116750D01*
X114750Y22000D02*
Y26000D01*
X92750Y24000D02*
X96750D01*
X94750Y22000D02*
Y26000D01*
X237750Y19000D02*
X241750D01*
X239750Y17000D02*
Y21000D01*
X216750Y19250D02*
X220750D01*
X218750Y17250D02*
Y21250D01*
X132250Y48750D02*
X136250D01*
X134250Y46750D02*
Y50750D01*
X149250Y48750D02*
X153250D01*
X151250Y46750D02*
Y50750D01*
X92750Y174000D02*
X96750D01*
X94750Y172000D02*
Y176000D01*
X92750Y89000D02*
X96750D01*
X94750Y87000D02*
Y91000D01*
%TF.MD5,7dbca3ac302e75ab4d2542d010832285*%
M02*
