%TF.GenerationSoftware,Altium Limited,Altium Designer,20.2.5 (213)*%
G04 Layer_Color=255*
%FSLAX44Y44*%
%MOMM*%
%TF.SameCoordinates,3FE501F2-1E46-4B48-ABA6-5278C61F2325*%
%TF.FilePolarity,Positive*%
%TF.FileFunction,Pads,Bot*%
%TF.Part,Single*%
G01*
G75*
%TA.AperFunction,SMDPad,CuDef*%
%ADD15R,0.6000X0.9000*%
%ADD18O,0.6500X1.6000*%
G04:AMPARAMS|DCode=19|XSize=1.35mm|YSize=0.9mm|CornerRadius=0.09mm|HoleSize=0mm|Usage=FLASHONLY|Rotation=270.000|XOffset=0mm|YOffset=0mm|HoleType=Round|Shape=RoundedRectangle|*
%AMROUNDEDRECTD19*
21,1,1.3500,0.7200,0,0,270.0*
21,1,1.1700,0.9000,0,0,270.0*
1,1,0.1800,-0.3600,-0.5850*
1,1,0.1800,-0.3600,0.5850*
1,1,0.1800,0.3600,0.5850*
1,1,0.1800,0.3600,-0.5850*
%
%ADD19ROUNDEDRECTD19*%
%ADD20R,0.9000X0.6000*%
%ADD21R,0.7000X0.9000*%
%ADD22R,0.1000X0.1000*%
%ADD23R,1.3000X0.9000*%
%ADD31R,2.5000X2.3000*%
%ADD32R,1.1000X1.7000*%
%TA.AperFunction,ComponentPad*%
%ADD49C,0.6500*%
%ADD50C,1.5000*%
%ADD51R,1.5000X1.5000*%
%ADD52C,2.6000*%
%ADD53C,2.2000*%
%ADD54R,1.6900X1.6900*%
%ADD55C,1.6900*%
%ADD56C,4.7600*%
%TA.AperFunction,ViaPad*%
%ADD57C,6.0000*%
%TA.AperFunction,SMDPad,CuDef*%
%ADD60R,0.9000X1.3000*%
D15*
X365800Y618000D02*
D03*
X350200D02*
D03*
X228400Y244000D02*
D03*
X244000D02*
D03*
X160800Y543000D02*
D03*
X145200D02*
D03*
X147000Y412000D02*
D03*
X131400D02*
D03*
X267200Y336000D02*
D03*
X282800D02*
D03*
D18*
X444701Y390006D02*
D03*
X457402D02*
D03*
X470102D02*
D03*
X432001Y390006D02*
D03*
Y340006D02*
D03*
X444701D02*
D03*
X470102D02*
D03*
X457402D02*
D03*
D19*
X438000Y273500D02*
D03*
Y319000D02*
D03*
X463000Y273500D02*
D03*
Y319000D02*
D03*
D20*
X278000Y233200D02*
D03*
Y248800D02*
D03*
X479000Y289200D02*
D03*
Y304800D02*
D03*
X421000Y273200D02*
D03*
Y288800D02*
D03*
X495000Y289200D02*
D03*
Y304800D02*
D03*
X269000Y370200D02*
D03*
Y385800D02*
D03*
X307000Y503800D02*
D03*
Y488200D02*
D03*
Y452200D02*
D03*
Y467800D02*
D03*
X101000Y433000D02*
D03*
Y448600D02*
D03*
D21*
X450000Y227000D02*
D03*
X459500Y248000D02*
D03*
X440500D02*
D03*
D22*
X489500Y324000D02*
D03*
X504500D02*
D03*
D23*
X162000Y370000D02*
D03*
Y348000D02*
D03*
X194000Y448000D02*
D03*
Y470000D02*
D03*
X490000Y163000D02*
D03*
Y185000D02*
D03*
X552000Y64000D02*
D03*
Y86000D02*
D03*
X546000Y230000D02*
D03*
Y208000D02*
D03*
X524000D02*
D03*
Y230000D02*
D03*
D31*
X101500Y67250D02*
D03*
X144500D02*
D03*
D32*
X137750Y151250D02*
D03*
X103750D02*
D03*
X137500Y127250D02*
D03*
X103500D02*
D03*
X137500Y104000D02*
D03*
X103500D02*
D03*
D49*
X339200Y583000D02*
D03*
X397000D02*
D03*
D50*
X637000Y226600D02*
D03*
Y201200D02*
D03*
Y175800D02*
D03*
Y150400D02*
D03*
Y125000D02*
D03*
X60000Y424800D02*
D03*
Y450200D02*
D03*
Y475600D02*
D03*
Y501000D02*
D03*
D51*
X637000Y99600D02*
D03*
X60000Y526400D02*
D03*
D52*
X421642Y211724D02*
D03*
X294642D02*
D03*
D53*
X320000Y199000D02*
D03*
X345399D02*
D03*
X370797D02*
D03*
X396196D02*
D03*
X396242Y224424D02*
D03*
X370844Y224440D02*
D03*
X345445D02*
D03*
X320046D02*
D03*
D54*
X562600Y349750D02*
D03*
D55*
X591000Y363600D02*
D03*
X562600Y377450D02*
D03*
X591000Y391300D02*
D03*
X562600Y405150D02*
D03*
X591000Y419000D02*
D03*
X562600Y432850D02*
D03*
X591000Y446700D02*
D03*
X562600Y460550D02*
D03*
D56*
X576800Y530100D02*
D03*
Y280200D02*
D03*
D57*
X632000Y40000D02*
D03*
X40000D02*
D03*
X40000Y611000D02*
D03*
X632000D02*
D03*
D60*
X163000Y389000D02*
D03*
X141000D02*
D03*
%TF.MD5,68a4897f1fe9a050c8ce468dec1047e0*%
M02*
