%TF.GenerationSoftware,Altium Limited,Altium Designer,20.2.5 (213)*%
G04 Layer_Physical_Order=1*
G04 Layer_Color=255*
%FSLAX44Y44*%
%MOMM*%
%TF.SameCoordinates,3FE501F2-1E46-4B48-ABA6-5278C61F2325*%
%TF.FilePolarity,Positive*%
%TF.FileFunction,Copper,L1,Top,Signal*%
%TF.Part,Single*%
G01*
G75*
%TA.AperFunction,SMDPad,CuDef*%
%ADD10R,0.3000X1.1500*%
%ADD11R,0.6000X1.1500*%
%ADD12R,2.1800X2.0000*%
G04:AMPARAMS|DCode=13|XSize=4.5mm|YSize=1.5mm|CornerRadius=0.375mm|HoleSize=0mm|Usage=FLASHONLY|Rotation=180.000|XOffset=0mm|YOffset=0mm|HoleType=Round|Shape=RoundedRectangle|*
%AMROUNDEDRECTD13*
21,1,4.5000,0.7500,0,0,180.0*
21,1,3.7500,1.5000,0,0,180.0*
1,1,0.7500,-1.8750,0.3750*
1,1,0.7500,1.8750,0.3750*
1,1,0.7500,1.8750,-0.3750*
1,1,0.7500,-1.8750,-0.3750*
%
%ADD13ROUNDEDRECTD13*%
%ADD14R,2.5000X0.8000*%
%ADD15R,0.6000X0.9000*%
%ADD16O,0.4500X1.0500*%
%ADD17R,1.2000X0.7000*%
%ADD18O,0.6500X1.6000*%
G04:AMPARAMS|DCode=19|XSize=1.35mm|YSize=0.9mm|CornerRadius=0.09mm|HoleSize=0mm|Usage=FLASHONLY|Rotation=270.000|XOffset=0mm|YOffset=0mm|HoleType=Round|Shape=RoundedRectangle|*
%AMROUNDEDRECTD19*
21,1,1.3500,0.7200,0,0,270.0*
21,1,1.1700,0.9000,0,0,270.0*
1,1,0.1800,-0.3600,-0.5850*
1,1,0.1800,-0.3600,0.5850*
1,1,0.1800,0.3600,0.5850*
1,1,0.1800,0.3600,-0.5850*
%
%ADD19ROUNDEDRECTD19*%
%ADD20R,0.9000X0.6000*%
%ADD21R,0.7000X0.9000*%
%ADD22R,0.1000X0.1000*%
%ADD23R,1.3000X0.9000*%
G04:AMPARAMS|DCode=24|XSize=1.6mm|YSize=1.8mm|CornerRadius=0.16mm|HoleSize=0mm|Usage=FLASHONLY|Rotation=90.000|XOffset=0mm|YOffset=0mm|HoleType=Round|Shape=RoundedRectangle|*
%AMROUNDEDRECTD24*
21,1,1.6000,1.4800,0,0,90.0*
21,1,1.2800,1.8000,0,0,90.0*
1,1,0.3200,0.7400,0.6400*
1,1,0.3200,0.7400,-0.6400*
1,1,0.3200,-0.7400,-0.6400*
1,1,0.3200,-0.7400,0.6400*
%
%ADD24ROUNDEDRECTD24*%
%ADD25O,1.5000X0.2540*%
%ADD26O,0.2540X1.5000*%
G04:AMPARAMS|DCode=27|XSize=1.5mm|YSize=0.8mm|CornerRadius=0.08mm|HoleSize=0mm|Usage=FLASHONLY|Rotation=270.000|XOffset=0mm|YOffset=0mm|HoleType=Round|Shape=RoundedRectangle|*
%AMROUNDEDRECTD27*
21,1,1.5000,0.6400,0,0,270.0*
21,1,1.3400,0.8000,0,0,270.0*
1,1,0.1600,-0.3200,-0.6700*
1,1,0.1600,-0.3200,0.6700*
1,1,0.1600,0.3200,0.6700*
1,1,0.1600,0.3200,-0.6700*
%
%ADD27ROUNDEDRECTD27*%
G04:AMPARAMS|DCode=28|XSize=2.2mm|YSize=2mm|CornerRadius=0.2mm|HoleSize=0mm|Usage=FLASHONLY|Rotation=270.000|XOffset=0mm|YOffset=0mm|HoleType=Round|Shape=RoundedRectangle|*
%AMROUNDEDRECTD28*
21,1,2.2000,1.6000,0,0,270.0*
21,1,1.8000,2.0000,0,0,270.0*
1,1,0.4000,-0.8000,-0.9000*
1,1,0.4000,-0.8000,0.9000*
1,1,0.4000,0.8000,0.9000*
1,1,0.4000,0.8000,-0.9000*
%
%ADD28ROUNDEDRECTD28*%
%ADD29R,3.1000X2.6000*%
%ADD30O,0.6000X1.3000*%
%ADD31R,2.5000X2.3000*%
%ADD32R,1.1000X1.7000*%
%ADD33R,1.0000X0.6000*%
%ADD34R,1.7000X1.1000*%
%ADD35R,2.2000X2.0000*%
%ADD36R,1.6500X1.4000*%
%ADD37R,3.0000X1.1000*%
%TA.AperFunction,Conductor*%
%ADD38C,0.2000*%
%ADD39C,0.4000*%
%ADD40C,0.8000*%
%ADD41C,1.0000*%
%ADD42C,0.2540*%
%ADD43C,0.3810*%
%ADD44C,0.5000*%
%ADD45R,1.3000X1.4250*%
%ADD46R,2.5750X2.7750*%
%ADD47R,5.0250X2.5000*%
%ADD48R,0.6250X2.5135*%
%TA.AperFunction,ComponentPad*%
%ADD49C,0.6500*%
%ADD50C,1.5000*%
%ADD51R,1.5000X1.5000*%
%ADD52C,2.6000*%
%ADD53C,2.2000*%
%ADD54R,1.6900X1.6900*%
%ADD55C,1.6900*%
%ADD56C,4.7600*%
%TA.AperFunction,ViaPad*%
%ADD57C,6.0000*%
%ADD58C,1.2700*%
%ADD59C,0.8000*%
G36*
X668941Y3059D02*
X3059D01*
X3059Y647941D01*
X668941D01*
Y3059D01*
D02*
G37*
%LPC*%
G36*
X432100Y629000D02*
X406300D01*
Y605000D01*
X432100D01*
Y629000D01*
D02*
G37*
G36*
X329900D02*
X304100D01*
Y605000D01*
X329900D01*
Y629000D01*
D02*
G37*
G36*
X366000Y605059D02*
X366000Y605059D01*
X349404D01*
X348233Y604826D01*
X347241Y604163D01*
X347241Y604163D01*
X344137Y601059D01*
X249000D01*
X249000Y601059D01*
X247829Y600826D01*
X246837Y600163D01*
X246837Y600163D01*
X201586Y554911D01*
X200371Y555493D01*
X200135Y557282D01*
X199294Y559313D01*
X197955Y561057D01*
X196211Y562396D01*
X194180Y563237D01*
X192000Y563524D01*
X189820Y563237D01*
X187789Y562396D01*
X186045Y561057D01*
X184706Y559313D01*
X183865Y557282D01*
X183578Y555102D01*
X183865Y552922D01*
X184706Y550891D01*
X184991Y550520D01*
X182801Y548331D01*
X181556Y548579D01*
X181294Y549211D01*
X179955Y550955D01*
X178211Y552294D01*
X176180Y553135D01*
X174000Y553422D01*
X171820Y553135D01*
X169789Y552294D01*
X168045Y550955D01*
X166706Y549211D01*
X165865Y547180D01*
X165578Y545000D01*
X165865Y542820D01*
X166706Y540789D01*
X167160Y540198D01*
X166598Y539059D01*
X163000D01*
X161829Y538826D01*
X160837Y538163D01*
X141733Y519059D01*
X110000D01*
Y521500D01*
X94000D01*
Y510500D01*
X98941D01*
Y507771D01*
X97789Y507294D01*
X96045Y505955D01*
X94706Y504211D01*
X93865Y502180D01*
X93578Y500000D01*
X93865Y497820D01*
X94706Y495789D01*
X96045Y494045D01*
X97033Y493287D01*
X97122Y493121D01*
X97140Y491665D01*
X64212Y458738D01*
X62480Y459455D01*
X60000Y459782D01*
X57520Y459455D01*
X55209Y458498D01*
X53225Y456975D01*
X51702Y454991D01*
X50745Y452680D01*
X49559Y452973D01*
Y472827D01*
X50745Y473120D01*
X51702Y470809D01*
X53225Y468825D01*
X55209Y467302D01*
X57520Y466344D01*
X58730Y466185D01*
Y475600D01*
X60000D01*
D01*
X58730D01*
Y485015D01*
X57520Y484855D01*
X55209Y483898D01*
X53225Y482375D01*
X51702Y480391D01*
X50745Y478080D01*
X49559Y478373D01*
Y498227D01*
X50745Y498520D01*
X51702Y496209D01*
X53225Y494225D01*
X55209Y492702D01*
X57520Y491744D01*
X60000Y491418D01*
X62480Y491744D01*
X64791Y492702D01*
X66775Y494225D01*
X68298Y496209D01*
X69255Y498520D01*
X69582Y501000D01*
X69255Y503480D01*
X68298Y505791D01*
X66775Y507775D01*
X64791Y509298D01*
X62480Y510255D01*
X60000Y510582D01*
X57520Y510255D01*
X55209Y509298D01*
X53225Y507775D01*
X51702Y505791D01*
X50745Y503480D01*
X49559Y503773D01*
Y516106D01*
X50500Y516900D01*
X69500D01*
Y535900D01*
X50500D01*
Y527959D01*
X49829Y527826D01*
X48837Y527163D01*
X44337Y522663D01*
X43674Y521670D01*
X43441Y520500D01*
X43441Y520500D01*
Y391500D01*
X43441Y391500D01*
X43674Y390330D01*
X44337Y389337D01*
X71837Y361837D01*
X71837Y361837D01*
X79837Y353837D01*
X80829Y353174D01*
X82000Y352941D01*
X232000D01*
X232000Y352941D01*
X233171Y353174D01*
X234163Y353837D01*
X237163Y356837D01*
X237163Y356837D01*
X237225Y356930D01*
X242400D01*
X243805Y357209D01*
X244995Y358005D01*
X245791Y359195D01*
X245890Y359693D01*
X246728Y359995D01*
X247258Y360058D01*
X248889Y358806D01*
X250920Y357965D01*
X253100Y357678D01*
X255280Y357965D01*
X257311Y358806D01*
X259055Y360145D01*
X260394Y361889D01*
X260671Y362559D01*
X261941Y362306D01*
Y354267D01*
X256852Y349178D01*
X255000Y349422D01*
X252820Y349135D01*
X250789Y348294D01*
X249045Y346955D01*
X247706Y345211D01*
X246865Y343180D01*
X246578Y341000D01*
X246865Y338820D01*
X247706Y336789D01*
X249045Y335045D01*
X250789Y333706D01*
X252820Y332865D01*
X255000Y332578D01*
X257180Y332865D01*
X259211Y333706D01*
X260955Y335045D01*
X262294Y336789D01*
X263135Y338820D01*
X263422Y341000D01*
X263135Y343180D01*
X262294Y345211D01*
X261965Y345639D01*
X267163Y350837D01*
X267163Y350837D01*
X267826Y351829D01*
X268059Y353000D01*
Y371000D01*
X268059Y371000D01*
X267826Y372170D01*
X267163Y373163D01*
X267163Y373163D01*
X264163Y376163D01*
X263402Y376671D01*
X263559Y377804D01*
X263613Y377941D01*
X279291D01*
X279853Y376802D01*
X279706Y376611D01*
X278865Y374580D01*
X278578Y372400D01*
X278865Y370220D01*
X279706Y368189D01*
X281045Y366445D01*
X282789Y365106D01*
X284820Y364265D01*
X287000Y363978D01*
X289180Y364265D01*
X291211Y365106D01*
X292955Y366445D01*
X293909Y367688D01*
X295180Y367257D01*
Y360600D01*
X295459Y359195D01*
X296255Y358005D01*
X297445Y357209D01*
X298850Y356930D01*
X304980D01*
Y367000D01*
X306250D01*
Y368270D01*
X317320D01*
Y373400D01*
X317259Y373709D01*
X318065Y374691D01*
X362983D01*
X373495Y364179D01*
X373371Y362915D01*
X372813Y362543D01*
X371653Y360806D01*
X371246Y358758D01*
Y349258D01*
X371653Y347209D01*
X372813Y345473D01*
X372843Y345169D01*
X370837Y343163D01*
X370174Y342171D01*
X370102Y341807D01*
X367400D01*
X366269Y341582D01*
X365309Y340941D01*
X364668Y339981D01*
X364443Y338850D01*
Y327150D01*
X364668Y326018D01*
X365309Y325059D01*
X366269Y324418D01*
X367400Y324193D01*
X374600D01*
X375732Y324418D01*
X376691Y325059D01*
X377332Y326018D01*
X377557Y327150D01*
Y338850D01*
X377332Y339981D01*
X376921Y340596D01*
X379163Y342837D01*
X379163Y342837D01*
X379826Y343829D01*
X380059Y345000D01*
Y345256D01*
X380383Y345473D01*
X381544Y347209D01*
X381951Y349258D01*
Y358758D01*
X381825Y359394D01*
X382735Y360520D01*
X383162D01*
X384072Y359394D01*
X383946Y358758D01*
Y349258D01*
X384353Y347209D01*
X385513Y345473D01*
X385941Y345187D01*
Y345000D01*
X385941Y345000D01*
X386174Y343829D01*
X386837Y342837D01*
X389678Y339996D01*
X389668Y339981D01*
X389443Y338850D01*
Y327150D01*
X389668Y326018D01*
X390309Y325059D01*
X391269Y324418D01*
X392400Y324193D01*
X399600D01*
X400732Y324418D01*
X401691Y325059D01*
X402332Y326018D01*
X402557Y327150D01*
Y334458D01*
X403730Y334944D01*
X517837Y220837D01*
X518829Y220174D01*
X520000Y219941D01*
X520000Y219941D01*
X535733D01*
X547941Y207733D01*
Y201398D01*
X546802Y200836D01*
X546208Y201292D01*
X544176Y202134D01*
X541997Y202420D01*
X539817Y202134D01*
X537786Y201292D01*
X536041Y199954D01*
X534703Y198209D01*
X533862Y196178D01*
X533575Y193998D01*
X533862Y191819D01*
X534225Y190942D01*
X530302Y187019D01*
X529294Y187789D01*
X530135Y189820D01*
X530422Y192000D01*
X530135Y194180D01*
X529294Y196211D01*
X527955Y197955D01*
X526211Y199294D01*
X524180Y200135D01*
X522000Y200422D01*
X519820Y200135D01*
X517789Y199294D01*
X516045Y197955D01*
X514706Y196211D01*
X513865Y194180D01*
X513578Y192000D01*
X513865Y189820D01*
X514706Y187789D01*
X516045Y186045D01*
X517789Y184706D01*
X518147Y184558D01*
X518017Y183237D01*
X516842Y183003D01*
X516235Y182598D01*
X515250Y182149D01*
X514265Y182598D01*
X513658Y183003D01*
X512000Y183333D01*
X510342Y183003D01*
X508936Y182064D01*
X507997Y180658D01*
X507667Y179000D01*
Y173000D01*
X507997Y171342D01*
X508936Y169936D01*
X508941Y169932D01*
Y161771D01*
X507789Y161294D01*
X506045Y159955D01*
X504706Y158211D01*
X503865Y156180D01*
X503578Y154000D01*
X503865Y151820D01*
X504706Y149789D01*
X506045Y148045D01*
X507789Y146706D01*
X509820Y145865D01*
X512000Y145578D01*
X514180Y145865D01*
X516211Y146706D01*
X517955Y148045D01*
X519294Y149789D01*
X519771Y150941D01*
X535733D01*
X540051Y146623D01*
X539519Y145359D01*
X537820Y145135D01*
X535789Y144294D01*
X534045Y142955D01*
X532706Y141211D01*
X531865Y139180D01*
X531578Y137000D01*
X531865Y134820D01*
X532706Y132789D01*
X534045Y131045D01*
X535789Y129706D01*
X537820Y128865D01*
X540000Y128578D01*
X542180Y128865D01*
X543057Y129228D01*
X546790Y125495D01*
X546729Y125086D01*
X546695Y125021D01*
X545310Y124172D01*
X544500Y124333D01*
X542842Y124003D01*
X542235Y123598D01*
X541250Y123149D01*
X540265Y123598D01*
X539658Y124003D01*
X538000Y124333D01*
X536342Y124003D01*
X535735Y123598D01*
X534750Y123149D01*
X533765Y123598D01*
X533158Y124003D01*
X531500Y124333D01*
X529842Y124003D01*
X529329Y123661D01*
X528059Y124340D01*
Y128000D01*
X528059Y128000D01*
X527826Y129171D01*
X527163Y130163D01*
X516163Y141163D01*
X515171Y141826D01*
X514000Y142059D01*
X514000Y142059D01*
X498500D01*
Y145500D01*
X481500D01*
Y132500D01*
X498500D01*
Y135941D01*
X512733D01*
X521941Y126733D01*
Y124340D01*
X520671Y123661D01*
X520158Y124003D01*
X518500Y124333D01*
X516842Y124003D01*
X516235Y123598D01*
X515250Y123149D01*
X514265Y123598D01*
X513658Y124003D01*
X512000Y124333D01*
X510342Y124003D01*
X508936Y123064D01*
X507997Y121658D01*
X507678Y120059D01*
X498500D01*
Y123500D01*
X481500D01*
Y110500D01*
X498500D01*
Y113941D01*
X507678D01*
X507997Y112342D01*
X508936Y110936D01*
X510342Y109997D01*
X512000Y109667D01*
X513658Y109997D01*
X514171Y110339D01*
X515441Y109661D01*
Y104767D01*
X508837Y98163D01*
X508174Y97170D01*
X507941Y96000D01*
X507941Y96000D01*
Y92267D01*
X505733Y90059D01*
X503500D01*
Y93500D01*
X486500D01*
Y80500D01*
X503500D01*
Y83941D01*
X507000D01*
X507000Y83941D01*
X508171Y84174D01*
X509163Y84837D01*
X512230Y87904D01*
X513500Y87378D01*
Y80500D01*
X530500D01*
Y93500D01*
X525059D01*
Y95733D01*
X533663Y104337D01*
X533671Y104350D01*
X534941Y103964D01*
Y70267D01*
X532561Y67887D01*
X530500D01*
Y71500D01*
X513500D01*
Y58500D01*
X530500D01*
Y61770D01*
X533828D01*
X533828Y61770D01*
X534999Y62003D01*
X535991Y62666D01*
X540163Y66837D01*
X540163Y66837D01*
X540826Y67829D01*
X541059Y69000D01*
X541059Y69000D01*
Y82170D01*
X542133Y82864D01*
X543306Y82454D01*
X543500Y81749D01*
Y79500D01*
X560500D01*
Y92500D01*
X556982D01*
X556288Y93634D01*
X556294Y93770D01*
X557955Y95045D01*
X559294Y96789D01*
X560135Y98820D01*
X560422Y101000D01*
X560135Y103180D01*
X559294Y105211D01*
X557955Y106955D01*
X556211Y108294D01*
X555425Y108619D01*
X555412Y108872D01*
X556636Y109838D01*
X557500Y109667D01*
X559158Y109997D01*
X560564Y110936D01*
X561503Y112342D01*
X561767Y113666D01*
X568500D01*
Y110500D01*
X585500D01*
Y110972D01*
X586770Y111403D01*
X587045Y111045D01*
X588789Y109706D01*
X590820Y108865D01*
X593000Y108578D01*
X595180Y108865D01*
X597211Y109706D01*
X598955Y111045D01*
X600294Y112789D01*
X601135Y114820D01*
X601422Y117000D01*
X601135Y119180D01*
X600294Y121211D01*
X598955Y122955D01*
X597211Y124294D01*
X595180Y125135D01*
X593000Y125422D01*
X590820Y125135D01*
X588789Y124294D01*
X587045Y122955D01*
X586770Y122597D01*
X585500Y123028D01*
Y123500D01*
X568500D01*
Y120334D01*
X561767D01*
X561503Y121658D01*
X560564Y123064D01*
X559158Y124003D01*
X557500Y124333D01*
X555842Y124003D01*
X555604Y123845D01*
X554334Y124523D01*
Y126000D01*
X554080Y127276D01*
X553358Y128358D01*
X547772Y133943D01*
X548135Y134820D01*
X548359Y136519D01*
X549623Y137051D01*
X557837Y128837D01*
X557837Y128837D01*
X558829Y128174D01*
X560000Y127941D01*
X587000D01*
X587000Y127941D01*
X588171Y128174D01*
X589163Y128837D01*
X594267Y133941D01*
X599000D01*
Y131500D01*
X615000D01*
Y142500D01*
X599000D01*
Y140059D01*
X593000D01*
X593000Y140059D01*
X591829Y139826D01*
X590837Y139163D01*
X586770Y135096D01*
X585500Y135622D01*
Y137730D01*
X577000D01*
X568500D01*
Y134059D01*
X561267D01*
X549296Y146029D01*
X549336Y146298D01*
X550600Y147341D01*
X550600Y147341D01*
X627984D01*
X628702Y145609D01*
X630224Y143625D01*
X632209Y142102D01*
X634520Y141145D01*
X637000Y140818D01*
X639480Y141145D01*
X641791Y142102D01*
X643775Y143625D01*
X645298Y145609D01*
X646255Y147920D01*
X646582Y150400D01*
X646255Y152880D01*
X645298Y155191D01*
X643775Y157176D01*
X641791Y158698D01*
X640059Y159416D01*
Y160744D01*
X658163Y178848D01*
X658826Y179841D01*
X659059Y181011D01*
X659059Y181012D01*
Y246000D01*
X659059Y246000D01*
X658826Y247171D01*
X658163Y248163D01*
X591163Y315163D01*
X590171Y315826D01*
X589000Y316059D01*
X589000Y316059D01*
X492267D01*
X424365Y383961D01*
X425135Y385820D01*
X425422Y388000D01*
X425135Y390180D01*
X424294Y392211D01*
X422955Y393955D01*
X421211Y395294D01*
X419180Y396135D01*
X417000Y396422D01*
X414820Y396135D01*
X412789Y395294D01*
X411045Y393955D01*
X409706Y392211D01*
X408865Y390180D01*
X408578Y388000D01*
X408865Y385820D01*
X409706Y383789D01*
X411045Y382045D01*
X412789Y380706D01*
X414820Y379865D01*
X417000Y379578D01*
X419180Y379865D01*
X419625Y380049D01*
X487167Y312507D01*
X486681Y311334D01*
X474381D01*
X398358Y387357D01*
X397276Y388080D01*
X396000Y388334D01*
X284381D01*
X260357Y412357D01*
X259276Y413080D01*
X258000Y413334D01*
X251835D01*
Y415221D01*
X251582Y416497D01*
X250859Y417579D01*
X250721Y417671D01*
X251106Y418941D01*
X262733D01*
X289837Y391837D01*
X289837Y391837D01*
X290830Y391174D01*
X292000Y390941D01*
X360436D01*
X360450Y390932D01*
X361620Y390699D01*
X397832D01*
X397832Y390699D01*
X399002Y390932D01*
X399995Y391595D01*
X402381Y393981D01*
X404047Y394312D01*
X405783Y395473D01*
X406944Y397209D01*
X407351Y399258D01*
Y408758D01*
X406944Y410806D01*
X405783Y412543D01*
X404047Y413703D01*
X401998Y414111D01*
X399950Y413703D01*
X398213Y412543D01*
X397053Y410806D01*
X396646Y408758D01*
Y399258D01*
X396788Y398542D01*
X395845Y397422D01*
X395392Y397433D01*
X394510Y398546D01*
X394651Y399258D01*
Y402738D01*
X383946D01*
Y399258D01*
X384072Y398622D01*
X383162Y397496D01*
X382735D01*
X381825Y398622D01*
X381951Y399258D01*
Y408758D01*
X381544Y410806D01*
X381078Y411503D01*
Y414311D01*
X384084Y417316D01*
X384968Y418639D01*
X385278Y420200D01*
X385278Y420200D01*
Y424922D01*
X446311D01*
X475920Y395312D01*
X475865Y395180D01*
X475578Y393000D01*
X475865Y390820D01*
X476706Y388789D01*
X478045Y387045D01*
X479789Y385706D01*
X481820Y384865D01*
X484000Y384578D01*
X486180Y384865D01*
X488211Y385706D01*
X489955Y387045D01*
X491294Y388789D01*
X492135Y390820D01*
X492422Y393000D01*
X492135Y395180D01*
X491294Y397211D01*
X489955Y398955D01*
X488211Y400294D01*
X486180Y401135D01*
X484000Y401422D01*
X481820Y401135D01*
X481688Y401080D01*
X450884Y431884D01*
X449561Y432768D01*
X448000Y433078D01*
X448000Y433078D01*
X385278D01*
Y499000D01*
X385278Y499000D01*
X385278Y499000D01*
Y504511D01*
X400991Y520224D01*
X400991Y520224D01*
X401875Y521547D01*
X402186Y523107D01*
Y524500D01*
X403200D01*
Y537500D01*
X402078D01*
Y546994D01*
X402278Y548000D01*
X402278Y548000D01*
Y556800D01*
X402278Y556800D01*
X401968Y558361D01*
X401084Y559684D01*
X401084Y559684D01*
X397441Y563327D01*
X397927Y564500D01*
X398830D01*
Y572250D01*
X401370D01*
Y564500D01*
X405100D01*
Y565831D01*
X406300Y566000D01*
X406370Y566000D01*
X432100D01*
Y590000D01*
X406300D01*
Y580169D01*
X405100Y580000D01*
X405030Y580000D01*
X403623D01*
X402773Y581270D01*
X403117Y583000D01*
X402652Y585341D01*
X401326Y587326D01*
X399341Y588652D01*
X397000Y589118D01*
X394659Y588652D01*
X392674Y587326D01*
X391348Y585341D01*
X390882Y583000D01*
X391227Y581270D01*
X390377Y580000D01*
X373659D01*
Y596250D01*
X373426Y597421D01*
X373059Y597970D01*
Y598000D01*
X372826Y599171D01*
X372163Y600163D01*
X372163Y600163D01*
X368163Y604163D01*
X367171Y604826D01*
X366000Y605059D01*
D02*
G37*
G36*
X418800Y537500D02*
X415070D01*
Y532270D01*
X418800D01*
Y537500D01*
D02*
G37*
G36*
X412530D02*
X408800D01*
Y532270D01*
X412530D01*
Y537500D01*
D02*
G37*
G36*
X418800Y529730D02*
X415070D01*
Y524500D01*
X418800D01*
Y529730D01*
D02*
G37*
G36*
X412530D02*
X408800D01*
Y524500D01*
X412530D01*
Y529730D01*
D02*
G37*
G36*
X576800Y556025D02*
X571742Y555527D01*
X566879Y554051D01*
X562397Y551656D01*
X558468Y548432D01*
X555244Y544503D01*
X552849Y540021D01*
X551373Y535158D01*
X550875Y530100D01*
X551373Y525042D01*
X552849Y520179D01*
X555244Y515697D01*
X558468Y511768D01*
X562397Y508544D01*
X566879Y506148D01*
X571742Y504673D01*
X576800Y504175D01*
X581858Y504673D01*
X586721Y506148D01*
X591203Y508544D01*
X595132Y511768D01*
X598356Y515697D01*
X600751Y520179D01*
X602227Y525042D01*
X602725Y530100D01*
X602227Y535158D01*
X600751Y540021D01*
X598356Y544503D01*
X595132Y548432D01*
X591203Y551656D01*
X586721Y554051D01*
X581858Y555527D01*
X576800Y556025D01*
D02*
G37*
G36*
X61270Y485015D02*
Y476870D01*
X69415D01*
X69255Y478080D01*
X68298Y480391D01*
X66775Y482375D01*
X64791Y483898D01*
X62480Y484855D01*
X61270Y485015D01*
D02*
G37*
G36*
X69415Y474330D02*
X61270D01*
Y466185D01*
X62480Y466344D01*
X64791Y467302D01*
X66775Y468825D01*
X68298Y470809D01*
X69255Y473120D01*
X69415Y474330D01*
D02*
G37*
G36*
X562600Y471090D02*
X559872Y470731D01*
X557330Y469678D01*
X555147Y468003D01*
X553472Y465820D01*
X552419Y463278D01*
X552060Y460550D01*
X552419Y457822D01*
X553472Y455280D01*
X555147Y453097D01*
X557330Y451422D01*
X559872Y450369D01*
X562600Y450010D01*
X565328Y450369D01*
X567870Y451422D01*
X570053Y453097D01*
X571728Y455280D01*
X572781Y457822D01*
X573140Y460550D01*
X572781Y463278D01*
X571728Y465820D01*
X570053Y468003D01*
X567870Y469678D01*
X565328Y470731D01*
X562600Y471090D01*
D02*
G37*
G36*
X591000Y457240D02*
X588272Y456881D01*
X585730Y455828D01*
X583547Y454153D01*
X581872Y451970D01*
X580819Y449428D01*
X580460Y446700D01*
X580819Y443972D01*
X581872Y441430D01*
X583547Y439247D01*
X585730Y437572D01*
X588272Y436519D01*
X591000Y436160D01*
X593728Y436519D01*
X596270Y437572D01*
X598453Y439247D01*
X600128Y441430D01*
X601181Y443972D01*
X601540Y446700D01*
X601181Y449428D01*
X600128Y451970D01*
X598453Y454153D01*
X596270Y455828D01*
X593728Y456881D01*
X591000Y457240D01*
D02*
G37*
G36*
X562600Y443390D02*
X559872Y443031D01*
X557330Y441978D01*
X555147Y440303D01*
X553472Y438120D01*
X552419Y435578D01*
X552060Y432850D01*
X552419Y430122D01*
X553472Y427580D01*
X555147Y425397D01*
X557330Y423722D01*
X559872Y422669D01*
X562600Y422310D01*
X565328Y422669D01*
X567870Y423722D01*
X570053Y425397D01*
X571728Y427580D01*
X572781Y430122D01*
X573140Y432850D01*
X572781Y435578D01*
X571728Y438120D01*
X570053Y440303D01*
X567870Y441978D01*
X565328Y443031D01*
X562600Y443390D01*
D02*
G37*
G36*
X591000Y429540D02*
X588272Y429181D01*
X585730Y428128D01*
X583547Y426453D01*
X581872Y424270D01*
X580819Y421728D01*
X580460Y419000D01*
X580819Y416272D01*
X581872Y413730D01*
X583547Y411547D01*
X585730Y409872D01*
X588272Y408819D01*
X591000Y408460D01*
X593728Y408819D01*
X596270Y409872D01*
X598453Y411547D01*
X600128Y413730D01*
X601181Y416272D01*
X601540Y419000D01*
X601181Y421728D01*
X600128Y424270D01*
X598453Y426453D01*
X596270Y428128D01*
X593728Y429181D01*
X591000Y429540D01*
D02*
G37*
G36*
X390568Y413858D02*
Y405278D01*
X394651D01*
Y408758D01*
X394244Y410806D01*
X393083Y412543D01*
X391347Y413703D01*
X390568Y413858D01*
D02*
G37*
G36*
X388028D02*
X387250Y413703D01*
X385513Y412543D01*
X384353Y410806D01*
X383946Y408758D01*
Y405278D01*
X388028D01*
Y413858D01*
D02*
G37*
G36*
X562600Y415690D02*
X559872Y415331D01*
X557330Y414278D01*
X555147Y412603D01*
X553472Y410420D01*
X552419Y407878D01*
X552060Y405150D01*
X552419Y402422D01*
X553472Y399880D01*
X555147Y397697D01*
X557330Y396022D01*
X559872Y394969D01*
X562600Y394610D01*
X565328Y394969D01*
X567870Y396022D01*
X570053Y397697D01*
X571728Y399880D01*
X572781Y402422D01*
X573140Y405150D01*
X572781Y407878D01*
X571728Y410420D01*
X570053Y412603D01*
X567870Y414278D01*
X565328Y415331D01*
X562600Y415690D01*
D02*
G37*
G36*
X591000Y401840D02*
X588272Y401481D01*
X585730Y400428D01*
X583547Y398753D01*
X581872Y396570D01*
X580819Y394028D01*
X580460Y391300D01*
X580819Y388572D01*
X581872Y386030D01*
X583547Y383847D01*
X585730Y382172D01*
X588272Y381119D01*
X591000Y380760D01*
X593728Y381119D01*
X596270Y382172D01*
X598453Y383847D01*
X600128Y386030D01*
X601181Y388572D01*
X601540Y391300D01*
X601181Y394028D01*
X600128Y396570D01*
X598453Y398753D01*
X596270Y400428D01*
X593728Y401481D01*
X591000Y401840D01*
D02*
G37*
G36*
X562600Y387990D02*
X559872Y387631D01*
X557330Y386578D01*
X555147Y384903D01*
X553472Y382720D01*
X552419Y380178D01*
X552060Y377450D01*
X552419Y374722D01*
X553472Y372180D01*
X555147Y369997D01*
X557330Y368322D01*
X559872Y367269D01*
X562600Y366910D01*
X565328Y367269D01*
X567870Y368322D01*
X570053Y369997D01*
X571728Y372180D01*
X572781Y374722D01*
X573140Y377450D01*
X572781Y380178D01*
X571728Y382720D01*
X570053Y384903D01*
X567870Y386578D01*
X565328Y387631D01*
X562600Y387990D01*
D02*
G37*
G36*
X317320Y365730D02*
X307520D01*
Y356930D01*
X313650D01*
X315055Y357209D01*
X316245Y358005D01*
X317041Y359195D01*
X317320Y360600D01*
Y365730D01*
D02*
G37*
G36*
X591000Y374140D02*
X588272Y373781D01*
X585730Y372728D01*
X583547Y371053D01*
X581872Y368870D01*
X580819Y366328D01*
X580460Y363600D01*
X580819Y360872D01*
X581872Y358330D01*
X583547Y356147D01*
X585730Y354472D01*
X588272Y353419D01*
X591000Y353060D01*
X593728Y353419D01*
X596270Y354472D01*
X598453Y356147D01*
X600128Y358330D01*
X601181Y360872D01*
X601540Y363600D01*
X601181Y366328D01*
X600128Y368870D01*
X598453Y371053D01*
X596270Y372728D01*
X593728Y373781D01*
X591000Y374140D01*
D02*
G37*
G36*
X573050Y360200D02*
X563870D01*
Y351020D01*
X573050D01*
Y360200D01*
D02*
G37*
G36*
X561330D02*
X552150D01*
Y351020D01*
X561330D01*
Y360200D01*
D02*
G37*
G36*
X363898Y364111D02*
X361850Y363703D01*
X360113Y362543D01*
X358953Y360806D01*
X358546Y358758D01*
Y349258D01*
X358953Y347209D01*
X360113Y345473D01*
X361850Y344312D01*
X363898Y343905D01*
X365947Y344312D01*
X367683Y345473D01*
X368844Y347209D01*
X369251Y349258D01*
Y358758D01*
X368844Y360806D01*
X367683Y362543D01*
X365947Y363703D01*
X363898Y364111D01*
D02*
G37*
G36*
X573050Y348480D02*
X563870D01*
Y339300D01*
X573050D01*
Y348480D01*
D02*
G37*
G36*
X561330D02*
X552150D01*
Y339300D01*
X561330D01*
Y348480D01*
D02*
G37*
G36*
X338500Y323800D02*
X333270D01*
Y320070D01*
X338500D01*
Y323800D01*
D02*
G37*
G36*
X330730D02*
X325500D01*
Y320070D01*
X330730D01*
Y323800D01*
D02*
G37*
G36*
X341203Y347119D02*
X329500D01*
X328720Y346964D01*
X328058Y346522D01*
X327616Y345860D01*
X327461Y345080D01*
Y342059D01*
X327000D01*
X325829Y341826D01*
X324837Y341163D01*
X312837Y329163D01*
X312174Y328171D01*
X311941Y327000D01*
X311941Y327000D01*
Y294000D01*
X311941Y294000D01*
X312174Y292830D01*
X312837Y291837D01*
X318837Y285837D01*
X318837Y285837D01*
X319830Y285174D01*
X321000Y284941D01*
X364443D01*
Y281650D01*
X364668Y280518D01*
X365309Y279559D01*
X366269Y278918D01*
X367400Y278693D01*
X368310D01*
X369500Y278500D01*
Y265500D01*
X371441D01*
Y238076D01*
X370844Y237552D01*
X367450Y237105D01*
X364287Y235795D01*
X364020Y235590D01*
X359757Y239853D01*
X358764Y240516D01*
X357594Y240749D01*
X357593Y240749D01*
X337690D01*
X336519Y240516D01*
X335527Y239853D01*
X329382Y233708D01*
X329318Y233712D01*
X326602Y235795D01*
X323440Y237105D01*
X320046Y237552D01*
X316653Y237105D01*
X313490Y235795D01*
X310775Y233712D01*
X308691Y230996D01*
X307381Y227834D01*
X306934Y224440D01*
X307132Y222941D01*
X305920Y222416D01*
X305655Y222738D01*
X303295Y224675D01*
X300602Y226114D01*
X297681Y227000D01*
X294642Y227299D01*
X291604Y227000D01*
X288682Y226114D01*
X285989Y224675D01*
X283629Y222738D01*
X281692Y220378D01*
X280253Y217685D01*
X279366Y214763D01*
X279067Y211724D01*
X279366Y208686D01*
X280253Y205764D01*
X281692Y203071D01*
X283629Y200711D01*
X285989Y198774D01*
X288682Y197335D01*
X291604Y196449D01*
X294642Y196150D01*
X297681Y196449D01*
X300602Y197335D01*
X303295Y198774D01*
X305655Y200711D01*
X305866Y200968D01*
X307078Y200442D01*
X306888Y199000D01*
X307335Y195606D01*
X308645Y192444D01*
X310728Y189728D01*
X313444Y187645D01*
X316606Y186335D01*
X320000Y185888D01*
X323394Y186335D01*
X326556Y187645D01*
X329272Y189728D01*
X331355Y192444D01*
X332012Y194029D01*
X333387D01*
X334043Y192444D01*
X336127Y189728D01*
X338843Y187645D01*
X342005Y186335D01*
X345399Y185888D01*
X348792Y186335D01*
X351955Y187645D01*
X354670Y189728D01*
X356754Y192444D01*
X357411Y194029D01*
X358785D01*
X359442Y192444D01*
X361525Y189728D01*
X364241Y187645D01*
X367404Y186335D01*
X370797Y185888D01*
X374191Y186335D01*
X377353Y187645D01*
X380069Y189728D01*
X382153Y192444D01*
X382809Y194029D01*
X384184D01*
X384840Y192444D01*
X386924Y189728D01*
X389640Y187645D01*
X392802Y186335D01*
X394926Y186055D01*
Y199000D01*
X396196D01*
Y200270D01*
X409141D01*
X409101Y200571D01*
X410313Y201096D01*
X410629Y200711D01*
X412989Y198774D01*
X415682Y197335D01*
X418604Y196449D01*
X421642Y196150D01*
X424681Y196449D01*
X427603Y197335D01*
X430295Y198774D01*
X432655Y200711D01*
X434592Y203071D01*
X436032Y205764D01*
X436918Y208686D01*
X437217Y211724D01*
X436918Y214763D01*
X436032Y217685D01*
X434592Y220378D01*
X432655Y222738D01*
X430295Y224675D01*
X427603Y226114D01*
X424681Y227000D01*
X421642Y227299D01*
X418604Y227000D01*
X415682Y226114D01*
X412989Y224675D01*
X410629Y222738D01*
X410372Y222425D01*
X409160Y222950D01*
X409354Y224424D01*
X408908Y227818D01*
X407598Y230981D01*
X405514Y233696D01*
X402798Y235780D01*
X399636Y237090D01*
X396559Y237495D01*
Y265500D01*
X399500D01*
Y278500D01*
X400607Y278894D01*
X400732Y278918D01*
X401691Y279559D01*
X402332Y280518D01*
X402557Y281650D01*
Y284441D01*
X413500D01*
Y282200D01*
X426500D01*
Y292200D01*
X413500D01*
Y290559D01*
X402557D01*
Y293350D01*
X402332Y294482D01*
X401691Y295441D01*
X400732Y296082D01*
X399600Y296307D01*
X392400D01*
X391269Y296082D01*
X390309Y295441D01*
X389668Y294482D01*
X389443Y293350D01*
Y281650D01*
X389668Y280518D01*
X390168Y279770D01*
X389930Y278986D01*
X389608Y278500D01*
X388500D01*
Y265500D01*
X390441D01*
Y258587D01*
X390000Y257500D01*
X389171Y257500D01*
X385770D01*
Y251000D01*
Y244500D01*
X390000D01*
X390441Y243413D01*
Y236093D01*
X389686Y235780D01*
X386970Y233696D01*
X384887Y230981D01*
X384233Y229403D01*
X382859D01*
X382199Y230996D01*
X380115Y233712D01*
X377559Y235673D01*
Y265500D01*
X380500D01*
Y278500D01*
X377391D01*
X377070Y278986D01*
X376832Y279770D01*
X377332Y280518D01*
X377557Y281650D01*
Y293350D01*
X377332Y294482D01*
X376691Y295441D01*
X375732Y296082D01*
X374600Y296307D01*
X367400D01*
X366269Y296082D01*
X365309Y295441D01*
X364668Y294482D01*
X364443Y293350D01*
Y291059D01*
X322267D01*
X318059Y295267D01*
Y325733D01*
X326345Y334019D01*
X326649Y334048D01*
X327874Y333753D01*
X328058Y333478D01*
X328720Y333036D01*
X329500Y332881D01*
X341202D01*
X341203Y332881D01*
X341983Y333036D01*
X342644Y333478D01*
X342857Y333797D01*
X344028Y334096D01*
X344370Y334081D01*
X344972Y333478D01*
X345634Y333036D01*
X346414Y332881D01*
X346941D01*
Y323800D01*
X345500D01*
Y313800D01*
X358500D01*
Y323800D01*
X353059D01*
Y332881D01*
X353086D01*
X353866Y333036D01*
X354528Y333478D01*
X354970Y334140D01*
X355125Y334920D01*
Y345079D01*
X354970Y345860D01*
X354528Y346521D01*
X353866Y346963D01*
X353086Y347119D01*
X346416D01*
X345636Y346963D01*
X344974Y346521D01*
X344974Y346521D01*
X344370Y345917D01*
X344027Y345902D01*
X342858Y346202D01*
X342644Y346522D01*
X341983Y346964D01*
X341203Y347119D01*
D02*
G37*
G36*
X338500Y317530D02*
X333270D01*
Y313800D01*
X338500D01*
Y317530D01*
D02*
G37*
G36*
X330730D02*
X325500D01*
Y313800D01*
X330730D01*
Y317530D01*
D02*
G37*
G36*
X134500Y314000D02*
X121270D01*
Y309270D01*
X134500D01*
Y314000D01*
D02*
G37*
G36*
X118730D02*
X105500D01*
Y309270D01*
X118730D01*
Y314000D01*
D02*
G37*
G36*
X358500Y308200D02*
X345500D01*
Y306259D01*
X338500D01*
Y308200D01*
X325500D01*
Y298200D01*
X338500D01*
Y300141D01*
X345500D01*
Y298200D01*
X358500D01*
Y300141D01*
X413500D01*
Y297800D01*
X426500D01*
Y307800D01*
X413500D01*
Y306259D01*
X358500D01*
Y308200D01*
D02*
G37*
G36*
X134500Y306730D02*
X121270D01*
Y302000D01*
X134500D01*
Y306730D01*
D02*
G37*
G36*
X118730D02*
X105500D01*
Y302000D01*
X118730D01*
Y306730D01*
D02*
G37*
G36*
X187000Y316422D02*
X184820Y316135D01*
X182789Y315294D01*
X181256Y314118D01*
X155000D01*
X154409Y314000D01*
X140500D01*
Y302000D01*
X148882D01*
Y280744D01*
X147706Y279211D01*
X146865Y277180D01*
X146578Y275000D01*
X146865Y272820D01*
X147706Y270789D01*
X149045Y269045D01*
X150789Y267706D01*
X152820Y266865D01*
X155000Y266578D01*
X157180Y266865D01*
X159211Y267706D01*
X160955Y269045D01*
X162294Y270789D01*
X163135Y272820D01*
X163422Y275000D01*
X163135Y277180D01*
X162294Y279211D01*
X161117Y280744D01*
Y301882D01*
X181256D01*
X182789Y300706D01*
X184820Y299865D01*
X187000Y299578D01*
X189180Y299865D01*
X191211Y300706D01*
X192955Y302045D01*
X194294Y303789D01*
X195135Y305820D01*
X195422Y308000D01*
X195135Y310180D01*
X194294Y312211D01*
X192955Y313955D01*
X191211Y315294D01*
X189180Y316135D01*
X187000Y316422D01*
D02*
G37*
G36*
X247000Y310078D02*
X240270D01*
Y298270D01*
X251078D01*
Y306000D01*
X250768Y307561D01*
X249884Y308884D01*
X248561Y309768D01*
X247000Y310078D01*
D02*
G37*
G36*
X237730D02*
X231000D01*
X229439Y309768D01*
X228116Y308884D01*
X227232Y307561D01*
X226922Y306000D01*
Y298270D01*
X237730D01*
Y310078D01*
D02*
G37*
G36*
X251078Y295730D02*
X240270D01*
Y283922D01*
X247000D01*
X248561Y284232D01*
X249884Y285116D01*
X250768Y286439D01*
X251078Y288000D01*
Y295730D01*
D02*
G37*
G36*
X237730D02*
X226922D01*
Y288000D01*
X227232Y286439D01*
X228116Y285116D01*
X229439Y284232D01*
X231000Y283922D01*
X237730D01*
Y295730D01*
D02*
G37*
G36*
X242200Y280555D02*
X235800D01*
X234708Y280338D01*
X233781Y279719D01*
X233162Y278792D01*
X232945Y277700D01*
Y264300D01*
X233162Y263207D01*
X233781Y262281D01*
X234547Y261770D01*
X234542Y261146D01*
X234335Y260500D01*
X234000D01*
Y257564D01*
X232730Y257038D01*
X228879Y260889D01*
X228879Y260889D01*
X226884Y262884D01*
X226884Y262884D01*
X225561Y263768D01*
X224000Y264078D01*
X224000Y264078D01*
X97000D01*
X97000Y264078D01*
X95439Y263768D01*
X94116Y262884D01*
X94116Y262884D01*
X91116Y259884D01*
X90232Y258561D01*
X89922Y257000D01*
X89922Y257000D01*
Y253000D01*
X88400D01*
Y240000D01*
X98400D01*
Y253000D01*
X98078D01*
Y255311D01*
X98689Y255922D01*
X156992D01*
X157518Y254652D01*
X156558Y253692D01*
X156367Y253406D01*
X155939Y253030D01*
X154821Y253029D01*
X153801Y253710D01*
X151850Y254098D01*
X149899Y253710D01*
X148245Y252605D01*
X147140Y250951D01*
X146752Y249000D01*
Y242000D01*
X147140Y240049D01*
X148245Y238395D01*
X149899Y237290D01*
X151850Y236902D01*
X153801Y237290D01*
X155455Y238395D01*
X155521Y238495D01*
X157078Y238538D01*
X158808Y236808D01*
X159470Y236366D01*
X160250Y236211D01*
X190693D01*
X191125Y236355D01*
Y236211D01*
X192211D01*
Y226250D01*
X192366Y225470D01*
X192808Y224808D01*
X192808Y223692D01*
X192366Y223030D01*
X192211Y222250D01*
Y199039D01*
X159000D01*
X158220Y198884D01*
X157625Y198487D01*
X157030Y198884D01*
X156250Y199039D01*
X147000Y199039D01*
X146220Y198884D01*
X145558Y198442D01*
X145116Y197780D01*
X144961Y197000D01*
Y195431D01*
X143691Y195204D01*
X142755Y196605D01*
X141101Y197710D01*
X140420Y197845D01*
Y189500D01*
X139150D01*
Y188230D01*
X134052D01*
Y186000D01*
X134440Y184049D01*
X135545Y182395D01*
X137199Y181290D01*
X137751Y181180D01*
X138169Y179802D01*
X133905Y175539D01*
X127000Y175539D01*
X126220Y175384D01*
X125558Y174942D01*
X125116Y174280D01*
X124961Y173500D01*
Y150500D01*
X124593D01*
Y123500D01*
X124961D01*
Y70750D01*
X124593D01*
Y55750D01*
X124961D01*
Y11750D01*
X125116Y10970D01*
X125558Y10308D01*
X126220Y9866D01*
X127000Y9711D01*
X156750D01*
X157530Y9866D01*
X158125Y10263D01*
X158720Y9866D01*
X159500Y9711D01*
X209750D01*
X210530Y9866D01*
X211192Y10308D01*
X211634Y10970D01*
X211789Y11750D01*
Y27905D01*
X222942Y39058D01*
X222942Y39058D01*
X223384Y39720D01*
X223539Y40500D01*
Y41857D01*
X224500Y41971D01*
Y60030D01*
X223539Y60143D01*
Y91905D01*
X229595Y97961D01*
X231671D01*
X232750Y96691D01*
Y96250D01*
X247750D01*
Y96716D01*
X247750Y97059D01*
X248175Y97906D01*
X248660Y98370D01*
X248942Y98558D01*
X249384Y99220D01*
X249539Y100000D01*
X249539Y123771D01*
X256884Y131116D01*
X256884Y131116D01*
X257768Y132439D01*
X258078Y134000D01*
X258078Y134000D01*
Y220346D01*
X257768Y221907D01*
X256884Y223230D01*
X256884Y223230D01*
X254578Y225536D01*
Y228922D01*
X256651D01*
X256706Y228789D01*
X258045Y227045D01*
X259789Y225706D01*
X261820Y224865D01*
X264000Y224578D01*
X266180Y224865D01*
X268211Y225706D01*
X269955Y227045D01*
X271294Y228789D01*
X272135Y230820D01*
X272422Y233000D01*
X272135Y235180D01*
X271294Y237211D01*
X269955Y238955D01*
X268211Y240294D01*
X266180Y241135D01*
X264000Y241422D01*
X261820Y241135D01*
X259789Y240294D01*
X258045Y238955D01*
X256706Y237211D01*
X256651Y237078D01*
X254500D01*
Y239500D01*
X243500D01*
Y237078D01*
X237689D01*
X235076Y239692D01*
Y247500D01*
X245000D01*
Y250941D01*
X247000D01*
X247000Y250941D01*
X248171Y251174D01*
X249163Y251837D01*
X251730Y254404D01*
X253000Y253878D01*
Y247500D01*
X257230D01*
Y254000D01*
Y260500D01*
X253059D01*
Y262752D01*
X254000Y263578D01*
X256180Y263865D01*
X258211Y264706D01*
X259955Y266045D01*
X261294Y267789D01*
X262135Y269820D01*
X262422Y272000D01*
X262135Y274180D01*
X261294Y276211D01*
X259955Y277955D01*
X258211Y279294D01*
X256180Y280135D01*
X254000Y280422D01*
X251820Y280135D01*
X249789Y279294D01*
X248045Y277955D01*
X246706Y276211D01*
X246325Y275290D01*
X245055Y275543D01*
Y277700D01*
X244837Y278792D01*
X244219Y279719D01*
X243293Y280338D01*
X242200Y280555D01*
D02*
G37*
G36*
X264000Y260500D02*
X259770D01*
Y255270D01*
X264000D01*
Y260500D01*
D02*
G37*
G36*
X383230Y257500D02*
X379000D01*
Y252270D01*
X383230D01*
Y257500D01*
D02*
G37*
G36*
X126450Y254098D02*
X124499Y253710D01*
X122845Y252605D01*
X121740Y250951D01*
X121647Y250481D01*
X114000D01*
Y253000D01*
X104000D01*
Y240000D01*
X105318D01*
Y230000D01*
X104300D01*
Y217000D01*
X114300D01*
Y230000D01*
X113281D01*
Y240000D01*
X114000D01*
Y242519D01*
X121352D01*
Y242000D01*
X121740Y240049D01*
X122845Y238395D01*
X124499Y237290D01*
X126450Y236902D01*
X128401Y237290D01*
X130055Y238395D01*
X131160Y240049D01*
X131548Y242000D01*
Y249000D01*
X131160Y250951D01*
X130055Y252605D01*
X128401Y253710D01*
X126450Y254098D01*
D02*
G37*
G36*
X264000Y252730D02*
X259770D01*
Y247500D01*
X264000D01*
Y252730D01*
D02*
G37*
G36*
X383230Y249730D02*
X379000D01*
Y244500D01*
X383230D01*
Y249730D01*
D02*
G37*
G36*
X139150Y254098D02*
X137199Y253710D01*
X135545Y252605D01*
X134440Y250951D01*
X134052Y249000D01*
Y242000D01*
X134440Y240049D01*
X135545Y238395D01*
X137199Y237290D01*
X139150Y236902D01*
X141101Y237290D01*
X142755Y238395D01*
X143860Y240049D01*
X144248Y242000D01*
Y249000D01*
X143860Y250951D01*
X142755Y252605D01*
X141101Y253710D01*
X139150Y254098D01*
D02*
G37*
G36*
X98700Y230000D02*
X94970D01*
Y224770D01*
X98700D01*
Y230000D01*
D02*
G37*
G36*
X92430D02*
X88700D01*
Y224770D01*
X92430D01*
Y230000D01*
D02*
G37*
G36*
X98700Y222230D02*
X94970D01*
Y219510D01*
X98700Y219812D01*
Y222230D01*
D02*
G37*
G36*
X92430D02*
X88700D01*
Y219004D01*
X92430Y219305D01*
Y222230D01*
D02*
G37*
G36*
X137880Y197845D02*
X137199Y197710D01*
X135545Y196605D01*
X134440Y194951D01*
X134052Y193000D01*
Y190770D01*
X137880D01*
Y197845D01*
D02*
G37*
G36*
X409141Y197730D02*
X397466D01*
Y186055D01*
X399590Y186335D01*
X402752Y187645D01*
X405468Y189728D01*
X407551Y192444D01*
X408861Y195606D01*
X409141Y197730D01*
D02*
G37*
G36*
X126450Y198098D02*
X124499Y197710D01*
X122845Y196605D01*
X121740Y194951D01*
X121352Y193000D01*
Y186000D01*
X121740Y184049D01*
X122845Y182395D01*
X124499Y181290D01*
X126450Y180902D01*
X128401Y181290D01*
X130055Y182395D01*
X131160Y184049D01*
X131548Y186000D01*
Y193000D01*
X131160Y194951D01*
X130055Y196605D01*
X128401Y197710D01*
X126450Y198098D01*
D02*
G37*
G36*
X585500Y145500D02*
X578270D01*
Y140270D01*
X585500D01*
Y145500D01*
D02*
G37*
G36*
X575730D02*
X568500D01*
Y140270D01*
X575730D01*
Y145500D01*
D02*
G37*
G36*
X638270Y134415D02*
Y126270D01*
X646415D01*
X646255Y127480D01*
X645298Y129791D01*
X643775Y131776D01*
X641791Y133298D01*
X639480Y134256D01*
X638270Y134415D01*
D02*
G37*
G36*
X635730D02*
X634520Y134256D01*
X632209Y133298D01*
X630224Y131776D01*
X628702Y129791D01*
X627744Y127480D01*
X627585Y126270D01*
X635730D01*
Y134415D01*
D02*
G37*
G36*
X646415Y123730D02*
X638270D01*
Y115585D01*
X639480Y115744D01*
X641791Y116702D01*
X643775Y118225D01*
X645298Y120209D01*
X646255Y122520D01*
X646415Y123730D01*
D02*
G37*
G36*
X635730D02*
X627585D01*
X627744Y122520D01*
X628702Y120209D01*
X630224Y118225D01*
X632209Y116702D01*
X634520Y115744D01*
X635730Y115585D01*
Y123730D01*
D02*
G37*
G36*
X646500Y109100D02*
X627500D01*
Y103059D01*
X615000D01*
Y105500D01*
X599000D01*
Y94500D01*
X615000D01*
Y96941D01*
X627500D01*
Y90100D01*
X646500D01*
Y109100D01*
D02*
G37*
G36*
X503500Y71500D02*
X496270D01*
Y66270D01*
X503500D01*
Y71500D01*
D02*
G37*
G36*
X493730D02*
X486500D01*
Y66270D01*
X493730D01*
Y71500D01*
D02*
G37*
G36*
X560500Y70500D02*
X553270D01*
Y65270D01*
X560500D01*
Y70500D01*
D02*
G37*
G36*
X550730D02*
X543500D01*
Y65270D01*
X550730D01*
Y70500D01*
D02*
G37*
G36*
X503500Y63730D02*
X496270D01*
Y58500D01*
X503500D01*
Y63730D01*
D02*
G37*
G36*
X493730D02*
X486500D01*
Y58500D01*
X493730D01*
Y63730D01*
D02*
G37*
G36*
X560500Y62730D02*
X553270D01*
Y57500D01*
X560500D01*
Y62730D01*
D02*
G37*
G36*
X550730D02*
X543500D01*
Y57500D01*
X550730D01*
Y62730D01*
D02*
G37*
%LPD*%
G36*
X304100Y566000D02*
X329900D01*
Y566000D01*
X331100Y565831D01*
Y564500D01*
X334830D01*
Y572250D01*
X337370D01*
Y564500D01*
X339922D01*
Y558000D01*
X339922Y558000D01*
X340232Y556439D01*
X341116Y555116D01*
X347116Y549116D01*
X348439Y548232D01*
X350000Y547922D01*
X350000Y547922D01*
X358311D01*
X367462Y538770D01*
X366936Y537500D01*
X365470D01*
Y531000D01*
Y524500D01*
X367922D01*
Y508200D01*
X367922Y508200D01*
X368232Y506639D01*
X369116Y505316D01*
X377122Y497311D01*
Y429000D01*
Y421889D01*
X374116Y418884D01*
X373232Y417561D01*
X372922Y416000D01*
X372922Y416000D01*
Y412615D01*
X372813Y412543D01*
X371653Y410806D01*
X371246Y408758D01*
Y399258D01*
X371372Y398622D01*
X370462Y397496D01*
X370035D01*
X369125Y398622D01*
X369251Y399258D01*
Y408758D01*
X368844Y410806D01*
X367683Y412543D01*
X365947Y413703D01*
X363898Y414111D01*
X361850Y413703D01*
X360113Y412543D01*
X358960Y410816D01*
X284105D01*
X269938Y424984D01*
X270424Y426157D01*
X275231D01*
X276096Y426329D01*
X291798D01*
X291865Y425820D01*
X292706Y423789D01*
X294045Y422045D01*
X295789Y420706D01*
X297820Y419865D01*
X300000Y419578D01*
X302180Y419865D01*
X304211Y420706D01*
X305955Y422045D01*
X307294Y423789D01*
X308135Y425820D01*
X308422Y428000D01*
X308135Y430180D01*
X307294Y432211D01*
X305955Y433955D01*
X304211Y435294D01*
X302180Y436135D01*
X300000Y436422D01*
X297820Y436135D01*
X295789Y435294D01*
X294045Y433955D01*
X292887Y432447D01*
X290546D01*
X290293Y433717D01*
X290935Y433983D01*
X292679Y435321D01*
X294017Y437065D01*
X294859Y439097D01*
X295146Y441276D01*
X294859Y443456D01*
X294017Y445487D01*
X292679Y447232D01*
X290935Y448570D01*
X288903Y449411D01*
X286724Y449698D01*
X284544Y449411D01*
X282513Y448570D01*
X280768Y447232D01*
X279614Y445728D01*
X278636Y445757D01*
X278225Y445897D01*
X278163Y445990D01*
X277661Y446991D01*
X278163Y447993D01*
X278312Y448215D01*
X278566Y449491D01*
X278312Y450767D01*
X278163Y450990D01*
X277661Y451991D01*
X278163Y452993D01*
X278312Y453215D01*
X278566Y454491D01*
X278312Y455767D01*
X277589Y456849D01*
Y457134D01*
X278312Y458215D01*
X278566Y459491D01*
X278312Y460767D01*
X278163Y460990D01*
X277661Y461991D01*
X278163Y462993D01*
X278312Y463215D01*
X278566Y464491D01*
X278312Y465767D01*
X277589Y466849D01*
Y467134D01*
X278312Y468215D01*
X278566Y469491D01*
X278312Y470767D01*
X278163Y470990D01*
X277661Y471991D01*
X278163Y472993D01*
X278312Y473215D01*
X278566Y474491D01*
X278312Y475767D01*
X278163Y475990D01*
X277661Y476991D01*
X278163Y477993D01*
X278312Y478215D01*
X278566Y479491D01*
X278312Y480767D01*
X277589Y481849D01*
Y482134D01*
X278312Y483215D01*
X278566Y484491D01*
X278312Y485767D01*
X278163Y485990D01*
X277661Y486991D01*
X278163Y487993D01*
X278312Y488215D01*
X278566Y489491D01*
X278312Y490767D01*
X278163Y490990D01*
X277661Y491991D01*
X278163Y492993D01*
X278312Y493215D01*
X278566Y494491D01*
X278312Y495767D01*
X278163Y495990D01*
X277661Y496991D01*
X278163Y497993D01*
X278312Y498215D01*
X278494Y499133D01*
X279604Y499543D01*
X279774Y499552D01*
X280553Y498536D01*
X282298Y497198D01*
X284329Y496356D01*
X286509Y496069D01*
X288688Y496356D01*
X290720Y497198D01*
X292464Y498536D01*
X293802Y500280D01*
X294644Y502312D01*
X294931Y504491D01*
X294644Y506671D01*
X293802Y508702D01*
X292464Y510447D01*
X290720Y511785D01*
X288688Y512626D01*
X286509Y512913D01*
X284329Y512626D01*
X282298Y511785D01*
X280553Y510447D01*
X279215Y508702D01*
X278738Y507550D01*
X276539D01*
X276507Y507572D01*
X275231Y507825D01*
X262771D01*
X261496Y507572D01*
X260414Y506849D01*
X259691Y505767D01*
X259437Y504491D01*
X259691Y503215D01*
X259840Y502993D01*
X260342Y501991D01*
X259840Y500990D01*
X259691Y500767D01*
X259690Y500761D01*
X269001D01*
Y498221D01*
X259690D01*
X259691Y498215D01*
X259840Y497993D01*
X260342Y496991D01*
X259840Y495990D01*
X259691Y495767D01*
X259437Y494491D01*
X259691Y493215D01*
X259840Y492993D01*
X260342Y491991D01*
X259840Y490990D01*
X259691Y490767D01*
X259437Y489491D01*
X259691Y488215D01*
X259840Y487993D01*
X260342Y486991D01*
X259840Y485990D01*
X259691Y485767D01*
X259437Y484491D01*
X259691Y483215D01*
X260414Y482134D01*
Y481849D01*
X259691Y480767D01*
X259437Y479491D01*
X259691Y478215D01*
X259840Y477993D01*
X260342Y476991D01*
X259840Y475990D01*
X259691Y475767D01*
X259437Y474491D01*
X259691Y473215D01*
X259840Y472993D01*
X260342Y471991D01*
X259840Y470990D01*
X259691Y470767D01*
X259437Y469491D01*
X259691Y468215D01*
X260414Y467134D01*
Y466849D01*
X259691Y465767D01*
X259437Y464491D01*
X259691Y463215D01*
X259840Y462993D01*
X260342Y461991D01*
X259840Y460990D01*
X259691Y460767D01*
X259437Y459491D01*
X259691Y458215D01*
X260414Y457134D01*
Y456849D01*
X259691Y455767D01*
X259437Y454491D01*
X259691Y453215D01*
X259840Y452993D01*
X260342Y451991D01*
X259840Y450990D01*
X259691Y450767D01*
X259437Y449491D01*
X259691Y448215D01*
X259840Y447993D01*
X260342Y446991D01*
X259840Y445990D01*
X259691Y445767D01*
X259437Y444491D01*
X259691Y443215D01*
X260414Y442134D01*
Y441849D01*
X259691Y440767D01*
X259437Y439491D01*
X259691Y438215D01*
X259840Y437993D01*
X260342Y436991D01*
X259840Y435990D01*
X259691Y435767D01*
X259690Y435761D01*
X269002D01*
Y433221D01*
X258411D01*
X258397Y433214D01*
X254448Y437163D01*
X253455Y437826D01*
X252285Y438059D01*
X252285Y438059D01*
X172105D01*
X168862Y441301D01*
X169582Y442378D01*
X170820Y441865D01*
X173000Y441578D01*
X175180Y441865D01*
X177211Y442706D01*
X178955Y444045D01*
X180294Y445789D01*
X181135Y447820D01*
X181422Y450000D01*
X181135Y452180D01*
X180294Y454211D01*
X178955Y455955D01*
X177211Y457294D01*
X175180Y458135D01*
X173000Y458422D01*
X170820Y458135D01*
X168789Y457294D01*
X167045Y455955D01*
X165706Y454211D01*
X164975Y452447D01*
X163209D01*
X162411Y453717D01*
X162565Y454491D01*
X162312Y455767D01*
X161589Y456849D01*
Y457134D01*
X162312Y458215D01*
X162565Y459491D01*
X162312Y460767D01*
X162163Y460990D01*
X161660Y461991D01*
X162163Y462993D01*
X162312Y463215D01*
X162565Y464491D01*
X162312Y465767D01*
X161589Y466849D01*
Y467134D01*
X162312Y468215D01*
X162565Y469491D01*
X162312Y470767D01*
X162163Y470990D01*
X161660Y471991D01*
X162163Y472993D01*
X162312Y473215D01*
X162565Y474491D01*
X162312Y475767D01*
X162163Y475990D01*
X161660Y476991D01*
X162163Y477993D01*
X162312Y478215D01*
X162565Y479491D01*
X162312Y480767D01*
X161589Y481849D01*
Y482134D01*
X162312Y483215D01*
X162565Y484491D01*
X162312Y485767D01*
X162163Y485990D01*
X161660Y486991D01*
X162163Y487993D01*
X162312Y488215D01*
X162565Y489491D01*
X162312Y490767D01*
X161589Y491849D01*
Y492134D01*
X162312Y493215D01*
X162565Y494491D01*
X162312Y495767D01*
X162163Y495990D01*
X161660Y496991D01*
X162163Y497993D01*
X162312Y498215D01*
X162565Y499491D01*
X162312Y500767D01*
X162163Y500990D01*
X161660Y501991D01*
X162163Y502993D01*
X162312Y503215D01*
X162565Y504491D01*
X162312Y505767D01*
X161589Y506849D01*
X160507Y507572D01*
X159231Y507825D01*
X146771D01*
X145496Y507572D01*
X145463Y507550D01*
X138491D01*
X137321Y507317D01*
X136328Y506654D01*
X136328Y506654D01*
X122733Y493059D01*
X108594D01*
X108173Y494329D01*
X109294Y495789D01*
X110135Y497820D01*
X110422Y500000D01*
X110135Y502180D01*
X109294Y504211D01*
X107955Y505955D01*
X106211Y507294D01*
X105059Y507771D01*
Y510500D01*
X110000D01*
Y512941D01*
X143000D01*
X143000Y512941D01*
X144171Y513174D01*
X145163Y513837D01*
X164267Y532941D01*
X169307D01*
X170257Y531671D01*
X170167Y531221D01*
Y518761D01*
X170421Y517486D01*
X171144Y516404D01*
X172225Y515681D01*
X173501Y515427D01*
X174777Y515681D01*
X175000Y515830D01*
X176001Y516332D01*
X177003Y515830D01*
X177225Y515681D01*
X177232Y515680D01*
Y524991D01*
X179771D01*
Y515680D01*
X179777Y515681D01*
X180000Y515830D01*
X181001Y516332D01*
X182003Y515830D01*
X182225Y515681D01*
X183501Y515427D01*
X184777Y515681D01*
X185000Y515830D01*
X186001Y516332D01*
X187003Y515830D01*
X187225Y515681D01*
X188501Y515427D01*
X189777Y515681D01*
X190000Y515830D01*
X191001Y516332D01*
X192003Y515830D01*
X192225Y515681D01*
X193501Y515427D01*
X194777Y515681D01*
X195000Y515830D01*
X196001Y516332D01*
X197003Y515830D01*
X197225Y515681D01*
X198501Y515427D01*
X199777Y515681D01*
X200000Y515830D01*
X201001Y516332D01*
X202003Y515830D01*
X202225Y515681D01*
X203501Y515427D01*
X204777Y515681D01*
X205000Y515830D01*
X206001Y516332D01*
X207003Y515830D01*
X207225Y515681D01*
X208501Y515427D01*
X209777Y515681D01*
X210000Y515830D01*
X211001Y516332D01*
X212003Y515830D01*
X212225Y515681D01*
X213501Y515427D01*
X214777Y515681D01*
X215000Y515830D01*
X216001Y516332D01*
X217003Y515830D01*
X217225Y515681D01*
X218501Y515427D01*
X219777Y515681D01*
X220000Y515830D01*
X221001Y516332D01*
X222003Y515830D01*
X222225Y515681D01*
X223501Y515427D01*
X224777Y515681D01*
X225000Y515830D01*
X226001Y516332D01*
X227003Y515830D01*
X227225Y515681D01*
X228501Y515427D01*
X229777Y515681D01*
X230000Y515830D01*
X231001Y516332D01*
X232003Y515830D01*
X232225Y515681D01*
X233501Y515427D01*
X234777Y515681D01*
X235000Y515830D01*
X236001Y516332D01*
X237003Y515830D01*
X237225Y515681D01*
X238501Y515427D01*
X239777Y515681D01*
X240000Y515830D01*
X241001Y516332D01*
X242003Y515830D01*
X242225Y515681D01*
X243501Y515427D01*
X244069Y515540D01*
X245339Y514646D01*
Y507936D01*
X243789Y507294D01*
X242045Y505955D01*
X240706Y504211D01*
X239865Y502180D01*
X239578Y500000D01*
X239865Y497820D01*
X240706Y495789D01*
X242045Y494045D01*
X243789Y492706D01*
X245820Y491865D01*
X248000Y491578D01*
X250180Y491865D01*
X252211Y492706D01*
X253955Y494045D01*
X255294Y495789D01*
X256135Y497820D01*
X256422Y500000D01*
X256135Y502180D01*
X255294Y504211D01*
X253955Y505955D01*
X252211Y507294D01*
X251457Y507606D01*
Y517299D01*
X251582Y517486D01*
X251835Y518761D01*
Y531221D01*
X251582Y532497D01*
X250859Y533579D01*
X249777Y534302D01*
X248501Y534555D01*
X247727Y534401D01*
X246457Y535199D01*
Y543394D01*
X247211Y543706D01*
X248955Y545045D01*
X250294Y546789D01*
X251135Y548820D01*
X251422Y551000D01*
X251135Y553180D01*
X250294Y555211D01*
X248955Y556955D01*
X247211Y558294D01*
X245180Y559135D01*
X243000Y559422D01*
X240820Y559135D01*
X238789Y558294D01*
X237045Y556955D01*
X235706Y555211D01*
X234865Y553180D01*
X234578Y551000D01*
X234865Y548820D01*
X235706Y546789D01*
X237045Y545045D01*
X238789Y543706D01*
X240339Y543064D01*
Y535337D01*
X239069Y534442D01*
X238501Y534555D01*
X237225Y534302D01*
X237003Y534153D01*
X236001Y533650D01*
X235000Y534153D01*
X234777Y534302D01*
X233501Y534555D01*
X232225Y534302D01*
X232003Y534153D01*
X231001Y533650D01*
X230000Y534153D01*
X229777Y534302D01*
X228501Y534555D01*
X227225Y534302D01*
X227003Y534153D01*
X226001Y533650D01*
X225000Y534153D01*
X224777Y534302D01*
X223501Y534555D01*
X222225Y534302D01*
X222003Y534153D01*
X221001Y533650D01*
X220000Y534153D01*
X219777Y534302D01*
X218501Y534555D01*
X217225Y534302D01*
X217003Y534153D01*
X216001Y533650D01*
X215000Y534153D01*
X214777Y534302D01*
X213501Y534555D01*
X212225Y534302D01*
X212003Y534153D01*
X211001Y533650D01*
X210000Y534153D01*
X209777Y534302D01*
X208501Y534555D01*
X207225Y534302D01*
X207003Y534153D01*
X206001Y533650D01*
X205000Y534153D01*
X204777Y534302D01*
X203501Y534555D01*
X202225Y534302D01*
X202003Y534153D01*
X201001Y533650D01*
X200000Y534153D01*
X199777Y534302D01*
X198501Y534555D01*
X197492Y535607D01*
X197418Y536093D01*
X251267Y589941D01*
X304100D01*
Y566000D01*
D02*
G37*
G36*
X143571Y500163D02*
X143437Y499491D01*
X143691Y498215D01*
X143840Y497993D01*
X144342Y496991D01*
X143840Y495990D01*
X143691Y495767D01*
X143437Y494491D01*
X143691Y493215D01*
X144414Y492134D01*
Y491849D01*
X143691Y490767D01*
X143437Y489491D01*
X143691Y488215D01*
X143840Y487993D01*
X144342Y486991D01*
X143840Y485990D01*
X143691Y485767D01*
X143437Y484491D01*
X143691Y483215D01*
X144414Y482134D01*
Y481849D01*
X143691Y480767D01*
X143437Y479491D01*
X143691Y478215D01*
X143840Y477993D01*
X144342Y476991D01*
X143840Y475990D01*
X143691Y475767D01*
X143437Y474491D01*
X143691Y473215D01*
X143840Y472993D01*
X144342Y471991D01*
X143840Y470990D01*
X143691Y470767D01*
X143437Y469491D01*
X143691Y468215D01*
X144414Y467134D01*
Y466849D01*
X143691Y465767D01*
X143437Y464491D01*
X143691Y463215D01*
X143840Y462993D01*
X144342Y461991D01*
X143840Y460990D01*
X143691Y460767D01*
X143437Y459491D01*
X143691Y458215D01*
X144414Y457134D01*
Y456849D01*
X143691Y455767D01*
X143437Y454491D01*
X143691Y453215D01*
X143840Y452993D01*
X144342Y451991D01*
X143840Y450990D01*
X143691Y450767D01*
X143437Y449491D01*
X143691Y448215D01*
X143840Y447993D01*
X144342Y446991D01*
X143840Y445990D01*
X143691Y445767D01*
X143437Y444491D01*
X143691Y443215D01*
X144414Y442134D01*
Y441849D01*
X143691Y440767D01*
X143437Y439491D01*
X143691Y438215D01*
X143840Y437993D01*
X144342Y436991D01*
X143840Y435990D01*
X143691Y435767D01*
X143690Y435761D01*
X153001D01*
Y433221D01*
X143172D01*
X142725Y432550D01*
X139491D01*
X138321Y432317D01*
X137328Y431654D01*
X137328Y431654D01*
X134733Y429059D01*
X124771D01*
X124294Y430211D01*
X122955Y431955D01*
X121211Y433294D01*
X119180Y434135D01*
X117000Y434422D01*
X114820Y434135D01*
X112789Y433294D01*
X111045Y431955D01*
X109706Y430211D01*
X108865Y428180D01*
X108578Y426000D01*
X108865Y423820D01*
X109706Y421789D01*
X111045Y420045D01*
X112789Y418706D01*
X114820Y417865D01*
X117000Y417578D01*
X119180Y417865D01*
X121211Y418706D01*
X122955Y420045D01*
X124294Y421789D01*
X124771Y422941D01*
X136000D01*
X136000Y422941D01*
X137170Y423174D01*
X138163Y423837D01*
X140758Y426432D01*
X145463D01*
X145496Y426411D01*
X146771Y426157D01*
X155673D01*
X156104Y424887D01*
X155190Y424186D01*
X153852Y422442D01*
X153010Y420411D01*
X152723Y418231D01*
X153010Y416051D01*
X153852Y414020D01*
X155190Y412276D01*
X156934Y410937D01*
X158966Y410096D01*
X161145Y409809D01*
X163325Y410096D01*
X165356Y410937D01*
X167101Y412276D01*
X168439Y414020D01*
X168897Y415126D01*
X170167Y414874D01*
Y402761D01*
X170421Y401485D01*
X171144Y400404D01*
X171228Y399553D01*
X146813Y375139D01*
X145544Y375188D01*
X144955Y375955D01*
X143211Y377294D01*
X141180Y378135D01*
X139000Y378422D01*
X136820Y378135D01*
X134789Y377294D01*
X133045Y375955D01*
X131706Y374211D01*
X131643Y374059D01*
X127613D01*
Y374750D01*
X127166Y376993D01*
X125896Y378895D01*
X123994Y380166D01*
X121750Y380613D01*
X84250D01*
X82007Y380166D01*
X80105Y378895D01*
X78834Y376993D01*
X78387Y374750D01*
Y367250D01*
X78764Y365358D01*
X77630Y364696D01*
X76163Y366163D01*
X76163Y366163D01*
X76163Y366163D01*
X49559Y392767D01*
Y422027D01*
X50745Y422320D01*
X51702Y420009D01*
X53225Y418024D01*
X55209Y416502D01*
X57520Y415545D01*
X60000Y415218D01*
X62480Y415545D01*
X64791Y416502D01*
X66775Y418024D01*
X68298Y420009D01*
X69255Y422320D01*
X69582Y424800D01*
X69255Y427280D01*
X68960Y427993D01*
X104884Y463916D01*
X105768Y465239D01*
X106078Y466800D01*
X106078Y466800D01*
Y473500D01*
X110000D01*
Y484500D01*
X100285D01*
X99799Y485673D01*
X101067Y486941D01*
X124000D01*
X124000Y486941D01*
X125170Y487174D01*
X126163Y487837D01*
X139758Y501433D01*
X142725D01*
X143571Y500163D01*
D02*
G37*
G36*
X229771Y399162D02*
X230443Y398714D01*
Y388768D01*
X230443Y388767D01*
X230676Y387597D01*
X231339Y386604D01*
X239699Y378244D01*
X239213Y377071D01*
X233182D01*
X232998Y377999D01*
X232334Y378991D01*
X227163Y384163D01*
X226171Y384826D01*
X225000Y385059D01*
X225000Y385059D01*
X220267D01*
X207354Y397972D01*
X207659Y399463D01*
X207820Y399563D01*
X208501Y399427D01*
X209777Y399681D01*
X210000Y399830D01*
X211001Y400332D01*
X212003Y399830D01*
X212225Y399681D01*
X213501Y399427D01*
X214777Y399681D01*
X215000Y399830D01*
X216001Y400332D01*
X217003Y399830D01*
X217225Y399681D01*
X218501Y399427D01*
X219777Y399681D01*
X220000Y399830D01*
X221001Y400332D01*
X222003Y399830D01*
X222225Y399681D01*
X223501Y399427D01*
X224777Y399681D01*
X225000Y399830D01*
X226001Y400332D01*
X227003Y399830D01*
X227225Y399681D01*
X227232Y399680D01*
Y408991D01*
X229771D01*
Y399162D01*
D02*
G37*
G36*
X524837Y241837D02*
X525829Y241174D01*
X527000Y240941D01*
X642733D01*
X644941Y238733D01*
Y233771D01*
X644469Y233611D01*
X643671Y233455D01*
X641791Y234898D01*
X639480Y235856D01*
X637000Y236182D01*
X634520Y235856D01*
X632209Y234898D01*
X630224Y233375D01*
X628702Y231391D01*
X627984Y229659D01*
X584600D01*
X583429Y229426D01*
X582437Y228763D01*
X582437Y228763D01*
X555232Y201558D01*
X554059Y202044D01*
Y209000D01*
X553826Y210170D01*
X553163Y211163D01*
X539163Y225163D01*
X538171Y225826D01*
X537000Y226059D01*
X537000Y226059D01*
X521267D01*
X404183Y343143D01*
X404504Y344618D01*
X405783Y345473D01*
X406944Y347209D01*
X407351Y349258D01*
Y352738D01*
X401998D01*
Y355278D01*
X407351D01*
Y357527D01*
X408621Y358053D01*
X524837Y241837D01*
D02*
G37*
G36*
X519770Y168919D02*
X520158Y168997D01*
X520765Y169402D01*
X521750Y169851D01*
X522735Y169402D01*
X523342Y168997D01*
X525000Y168667D01*
X526658Y168997D01*
X527265Y169402D01*
X528250Y169851D01*
X529235Y169402D01*
X529842Y168997D01*
X531500Y168667D01*
X533158Y168997D01*
X533671Y169339D01*
X534941Y168661D01*
Y163000D01*
X534941Y163000D01*
X535174Y161829D01*
X535837Y160837D01*
X538303Y158371D01*
X538264Y158102D01*
X537000Y157059D01*
X537000Y157059D01*
X519771D01*
X519294Y158211D01*
X517955Y159955D01*
X516211Y161294D01*
X515059Y161771D01*
Y168661D01*
X516329Y169339D01*
X516842Y168997D01*
X517230Y168919D01*
Y176000D01*
X519770D01*
Y168919D01*
D02*
G37*
%LPC*%
G36*
X362930Y537500D02*
X359200D01*
Y532270D01*
X362930D01*
Y537500D01*
D02*
G37*
G36*
Y529730D02*
X359200D01*
Y524500D01*
X362930D01*
Y529730D01*
D02*
G37*
%LPD*%
G36*
X353086Y334920D02*
X346414D01*
X341335Y339999D01*
X346416Y345079D01*
X353086D01*
Y334920D01*
D02*
G37*
G36*
X336123Y340000D02*
X341203Y334920D01*
X329500D01*
Y345080D01*
X341203D01*
X336123Y340000D01*
D02*
G37*
G36*
X195091Y238250D02*
X160250D01*
X158000Y240500D01*
X158000Y252250D01*
X159750Y254000D01*
X197000Y254000D01*
X195091Y238250D01*
D02*
G37*
G36*
X156250Y197000D02*
X156250Y167750D01*
X139500Y151000D01*
Y88250D01*
X156750Y71000D01*
Y11750D01*
X127000D01*
Y173500D01*
X134750Y173500D01*
X147000Y185750D01*
Y197000D01*
X156250Y197000D01*
D02*
G37*
G36*
X247500Y142750D02*
X198500D01*
X189750Y134000D01*
X189750Y74000D01*
X159250Y74000D01*
X142125Y91125D01*
X142125Y148625D01*
X159000Y165501D01*
Y197000D01*
X194250D01*
Y222250D01*
X247500D01*
Y142750D01*
D02*
G37*
G36*
X247500Y100000D02*
X228750Y100000D01*
X221500Y92750D01*
Y40500D01*
X206000Y25000D01*
X159500D01*
X159500Y70000D01*
X193500D01*
Y132000D01*
X200750Y139250D01*
X247500Y139250D01*
X247500Y100000D01*
D02*
G37*
D10*
X385600Y572250D02*
D03*
X350600D02*
D03*
X380600D02*
D03*
X355600D02*
D03*
X370600D02*
D03*
X365600D02*
D03*
X375600D02*
D03*
X360600D02*
D03*
D11*
X400100D02*
D03*
X336100D02*
D03*
X392100D02*
D03*
X344100D02*
D03*
D12*
X317000Y617000D02*
D03*
X419200D02*
D03*
Y578000D02*
D03*
X317000D02*
D03*
D13*
X103000Y371000D02*
D03*
X198000D02*
D03*
D14*
X120000Y308000D02*
D03*
X155000D02*
D03*
D15*
X379800Y531000D02*
D03*
X364200D02*
D03*
X413800D02*
D03*
X398200D02*
D03*
X93400Y246500D02*
D03*
X109000D02*
D03*
X109300Y223500D02*
D03*
X93700D02*
D03*
D16*
X512000Y117000D02*
D03*
X518500D02*
D03*
X525000D02*
D03*
X531500D02*
D03*
X538000D02*
D03*
X544500D02*
D03*
X551000D02*
D03*
Y176000D02*
D03*
X544500D02*
D03*
X538000D02*
D03*
X557500Y117000D02*
D03*
Y176000D02*
D03*
X531500D02*
D03*
X525000D02*
D03*
X518500D02*
D03*
X512000D02*
D03*
D17*
X607000Y137000D02*
D03*
Y100000D02*
D03*
X102000Y479000D02*
D03*
Y516000D02*
D03*
D18*
X389298Y404008D02*
D03*
X376598D02*
D03*
X363898D02*
D03*
X401998Y404008D02*
D03*
Y354008D02*
D03*
X389298D02*
D03*
X363898D02*
D03*
X376598D02*
D03*
D19*
X396000Y287500D02*
D03*
Y333000D02*
D03*
X371000Y287500D02*
D03*
Y333000D02*
D03*
D20*
X420000Y302800D02*
D03*
Y287200D02*
D03*
X332000Y318800D02*
D03*
Y303200D02*
D03*
X352000Y318800D02*
D03*
Y303200D02*
D03*
D21*
X394000Y272000D02*
D03*
X375000D02*
D03*
X384500Y251000D02*
D03*
X258500Y254000D02*
D03*
X239500D02*
D03*
X249000Y233000D02*
D03*
D22*
X333500Y340000D02*
D03*
X348500D02*
D03*
D23*
X577000Y117000D02*
D03*
Y139000D02*
D03*
X495000Y87000D02*
D03*
Y65000D02*
D03*
X522000Y87000D02*
D03*
Y65000D02*
D03*
X490000Y117000D02*
D03*
Y139000D02*
D03*
X552000Y86000D02*
D03*
Y64000D02*
D03*
D24*
X306250Y367000D02*
D03*
X235000D02*
D03*
D25*
X153001Y474491D02*
D03*
Y479491D02*
D03*
Y484491D02*
D03*
Y489491D02*
D03*
Y494491D02*
D03*
Y499491D02*
D03*
Y504491D02*
D03*
Y469491D02*
D03*
Y434491D02*
D03*
Y464491D02*
D03*
Y459491D02*
D03*
Y454491D02*
D03*
Y449491D02*
D03*
Y444491D02*
D03*
Y439491D02*
D03*
Y429491D02*
D03*
X269001Y474491D02*
D03*
Y479491D02*
D03*
Y484491D02*
D03*
Y489491D02*
D03*
Y494491D02*
D03*
Y499491D02*
D03*
Y504491D02*
D03*
Y469491D02*
D03*
Y464491D02*
D03*
Y459491D02*
D03*
Y454491D02*
D03*
Y449491D02*
D03*
Y444491D02*
D03*
Y439491D02*
D03*
Y434491D02*
D03*
Y429491D02*
D03*
D26*
X173501Y524991D02*
D03*
X178501D02*
D03*
X183501D02*
D03*
X188501D02*
D03*
X193501D02*
D03*
X198501D02*
D03*
X203501D02*
D03*
X208501D02*
D03*
X213501D02*
D03*
X218501D02*
D03*
X223501D02*
D03*
X228501D02*
D03*
X233501D02*
D03*
X238501D02*
D03*
X243501D02*
D03*
X248501D02*
D03*
X173501Y408991D02*
D03*
X178501D02*
D03*
X183501D02*
D03*
X188501D02*
D03*
X193501D02*
D03*
X198501D02*
D03*
X203501D02*
D03*
X208501D02*
D03*
X213501D02*
D03*
X218501D02*
D03*
X223501D02*
D03*
X228501D02*
D03*
X233501D02*
D03*
X238501D02*
D03*
X243501D02*
D03*
X248501D02*
D03*
D27*
X239000Y271000D02*
D03*
D28*
Y297000D02*
D03*
D29*
X145500Y217500D02*
D03*
D30*
X126450Y189500D02*
D03*
X139150D02*
D03*
X151850D02*
D03*
X164550D02*
D03*
X126450Y245500D02*
D03*
X139150D02*
D03*
X151850D02*
D03*
X164550D02*
D03*
D31*
X154750Y137000D02*
D03*
X111750D02*
D03*
D32*
X206250Y87000D02*
D03*
X240250D02*
D03*
D33*
X204750Y19750D02*
D03*
X230750D02*
D03*
D34*
X209250Y240250D02*
D03*
Y206250D02*
D03*
D35*
X209500Y111250D02*
D03*
Y177250D02*
D03*
D36*
X235000Y51000D02*
D03*
X211750D02*
D03*
D37*
X181500Y63250D02*
D03*
X108250D02*
D03*
D38*
X370600Y574000D02*
Y596250D01*
X370000D02*
Y598000D01*
X360600Y572250D02*
Y580600D01*
X380000Y558000D02*
X386000Y564000D01*
X385600Y572250D02*
X386000Y571850D01*
Y564000D02*
Y571850D01*
X355600Y572250D02*
Y587450D01*
X355400Y587650D02*
X355600Y587450D01*
X360600Y557422D02*
Y580600D01*
X364000Y584000D01*
Y595000D01*
X370000Y574000D02*
Y596250D01*
X346000Y531000D02*
X364200D01*
X361772Y556250D02*
X374428D01*
X360600Y557422D02*
X361772Y556250D01*
X375600Y557422D02*
Y572250D01*
X374428Y556250D02*
X375600Y557422D01*
X366772Y560079D02*
X369428D01*
X370600Y561250D01*
Y596250D01*
X365600Y561250D02*
X366772Y560079D01*
X365600Y561250D02*
Y572250D01*
X366000Y602000D02*
X370000Y598000D01*
X380000Y530000D02*
Y558000D01*
X505250Y220000D02*
X507600D01*
X394798Y348202D02*
Y361036D01*
X520000Y223000D02*
X537000D01*
X551000Y209000D01*
X394798Y348202D02*
X520000Y223000D01*
X589000Y313000D02*
X656000Y246000D01*
X415723Y388277D02*
X491000Y313000D01*
X589000D01*
X656000Y181011D02*
Y246000D01*
X637000Y162011D02*
X656000Y181011D01*
X527000Y244000D02*
X644000D01*
X648000Y240000D01*
X390000Y381000D02*
X527000Y244000D01*
X637000Y201200D02*
X648000Y212200D01*
Y240000D01*
X495000Y87000D02*
X507000D01*
X511000Y91000D02*
Y96000D01*
X507000Y87000D02*
X511000Y91000D01*
X518500Y103500D02*
Y117000D01*
X511000Y96000D02*
X518500Y103500D01*
X522000Y87000D02*
Y97000D01*
X531500Y106500D01*
Y117000D01*
X522000Y65000D02*
X522172Y64828D01*
X533828D01*
X538000Y69000D01*
Y117000D01*
X332000Y303200D02*
X420000D01*
X350000Y320800D02*
X352000Y318800D01*
X348500Y340000D02*
X348828D01*
X350000Y338828D01*
Y320800D02*
Y338828D01*
X407077Y349923D02*
X416000Y341000D01*
X401998Y352002D02*
Y354008D01*
Y352002D02*
X404077Y349923D01*
X407077D01*
X327000Y339000D02*
X335877D01*
X315000Y327000D02*
X327000Y339000D01*
X374500Y228096D02*
Y274000D01*
X315000Y294000D02*
Y327000D01*
X321000Y288000D02*
X370500D01*
X315000Y294000D02*
X321000Y288000D01*
X396000Y287500D02*
X420000D01*
X393500Y227167D02*
Y274000D01*
X58600Y525000D02*
X60000Y526400D01*
X51000Y525000D02*
X58600D01*
X46500Y391500D02*
Y520500D01*
X51000Y525000D01*
X138491Y504491D02*
X153001D01*
X124000Y490000D02*
X138491Y504491D01*
X99800Y490000D02*
X124000D01*
X60000Y450200D02*
X99800Y490000D01*
X235000Y359000D02*
Y367000D01*
X74000Y364000D02*
Y364000D01*
X46500Y391500D02*
X74000Y364000D01*
Y364000D02*
X82000Y356000D01*
X349404Y602000D02*
X366000D01*
X345404Y598000D02*
X349404Y602000D01*
X345000Y593000D02*
X350750Y598750D01*
X360250D02*
X364000Y595000D01*
X350750Y598750D02*
X360250D01*
X249000Y598000D02*
X345404D01*
X250000Y593000D02*
X345000D01*
X193501Y536501D02*
X250000Y593000D01*
X165000Y422000D02*
X171000D01*
X162000Y419000D02*
X165000Y422000D01*
X173501Y408991D02*
Y419499D01*
X171000Y422000D02*
X173501Y419499D01*
X139491Y429491D02*
X153001D01*
X136000Y426000D02*
X139491Y429491D01*
X117000Y426000D02*
X136000D01*
X255000Y341000D02*
Y343000D01*
X265000Y353000D02*
Y371000D01*
X255000Y343000D02*
X265000Y353000D01*
X262000Y374000D02*
X265000Y371000D01*
X252362Y379000D02*
X257362Y374000D01*
X262000D01*
X233501Y388767D02*
X243269Y379000D01*
X252362D01*
X233501Y388767D02*
Y408991D01*
X235900Y366100D02*
X253100D01*
X269001Y504491D02*
X286509D01*
X173501Y534828D02*
Y544501D01*
X174000Y545000D01*
X192000Y553204D02*
Y555102D01*
X183398Y544602D02*
X192000Y553204D01*
X188501Y537501D02*
X249000Y598000D01*
X188501Y524991D02*
Y537501D01*
X183398Y525095D02*
Y544602D01*
X143000Y516000D02*
X163000Y536000D01*
X173501Y524991D02*
Y534828D01*
X172330Y536000D02*
X173501Y534828D01*
X163000Y536000D02*
X172330D01*
X228501Y398501D02*
Y408991D01*
X222000Y392000D02*
X228501Y398501D01*
X269001Y439491D02*
X284939D01*
X286724Y441276D01*
X269105Y429388D02*
X298612D01*
X300000Y428000D01*
X269001Y429491D02*
X269105Y429388D01*
X516838Y185000D02*
X518500Y183338D01*
Y176000D02*
Y183338D01*
X470250Y185000D02*
X516838D01*
X523400Y190705D02*
X524522Y189584D01*
Y176478D02*
Y189584D01*
X470250Y185000D02*
X505250Y220000D01*
X468000Y185000D02*
X470250D01*
X178501Y524991D02*
X178605Y524888D01*
X377742Y364258D02*
X391577D01*
X364250Y377750D02*
X377742Y364258D01*
X294873Y377750D02*
X364250D01*
X391577Y364258D02*
X394798Y361036D01*
X256000Y381000D02*
X390000D01*
X225000Y382000D02*
X230172Y376828D01*
X203491Y397509D02*
X219000Y382000D01*
X225000D01*
X230172Y371828D02*
X235000Y367000D01*
X230172Y371828D02*
Y376828D01*
X244953Y398047D02*
X253953D01*
X243678Y399322D02*
X244953Y398047D01*
X243605Y402276D02*
Y408888D01*
X243501Y408991D02*
X243605Y408888D01*
Y402276D02*
X243678Y402203D01*
Y399322D02*
Y402203D01*
X238501Y398498D02*
Y408991D01*
Y398498D02*
X256000Y381000D01*
X253953Y398047D02*
X256000Y396000D01*
X135509Y434491D02*
X153001D01*
X130350Y439650D02*
X135509Y434491D01*
X129000Y449000D02*
X130350Y447650D01*
Y439650D02*
Y447650D01*
X512000Y154000D02*
X537000D01*
X560000Y131000D02*
X587000D01*
X537000Y154000D02*
X560000Y131000D01*
X593000Y137000D02*
X607000D01*
X587000Y131000D02*
X593000Y137000D01*
X434000Y420000D02*
X445000Y409000D01*
X392000Y420000D02*
X434000D01*
X389298Y404008D02*
Y417298D01*
X392000Y420000D01*
X512000Y176000D02*
X512000Y176000D01*
X512000Y154000D02*
Y176000D01*
X102000Y500000D02*
Y516000D01*
X143000D01*
X250000Y257000D02*
Y268000D01*
X254000Y272000D01*
X247000Y254000D02*
X250000Y257000D01*
X239500Y254000D02*
X247000D01*
X287000Y372400D02*
X289523D01*
X294873Y377750D01*
X264000Y422000D02*
X292000Y394000D01*
X361378D02*
X361620Y393758D01*
X292000Y394000D02*
X361378D01*
X637000Y150400D02*
Y162011D01*
X161854Y439388D02*
X179242Y422000D01*
X264000D01*
X261313Y425971D02*
X264625D01*
X252285Y435000D02*
X261313Y425971D01*
X264625D02*
X282838Y407758D01*
X170838Y435000D02*
X252285D01*
X282838Y407758D02*
X361820D01*
X401998Y398040D02*
Y404008D01*
X361620Y393758D02*
X397832D01*
X400246Y396287D02*
X401998Y398040D01*
X400246Y396172D02*
Y396287D01*
X397832Y393758D02*
X400246Y396172D01*
X524522Y176478D02*
X525000Y176000D01*
X370844Y224440D02*
X374500Y228096D01*
X393500Y227167D02*
X396242Y224424D01*
X551000Y193000D02*
Y209000D01*
X361820Y407758D02*
X363898Y405679D01*
Y404008D02*
Y405679D01*
X161419Y444419D02*
X170838Y435000D01*
X153001Y444491D02*
X153074Y444419D01*
X153001Y439491D02*
X153105Y439388D01*
X153074Y444419D02*
X161419D01*
X153105Y439388D02*
X161854D01*
X193501Y524991D02*
Y536501D01*
X248398Y524888D02*
X248501Y524991D01*
X248398Y500398D02*
Y524888D01*
X248000Y500000D02*
X248398Y500398D01*
X243398Y525095D02*
X243501Y524991D01*
X243398Y525095D02*
Y550602D01*
X243000Y551000D02*
X243398Y550602D01*
X168612Y449388D02*
X169000Y449000D01*
X235000Y367000D02*
X235900Y366100D01*
X203491Y397509D02*
Y408981D01*
X203501Y408991D01*
X82000Y356000D02*
X232000D01*
X235000Y359000D01*
X357594Y237690D02*
X370844Y224440D01*
X337690Y237690D02*
X357594D01*
X324440Y224440D02*
X337690Y237690D01*
X320046Y224440D02*
X324440D01*
X538000Y176000D02*
X538000Y176000D01*
X538000Y163000D02*
Y176000D01*
X550600Y150400D02*
X637000D01*
X538000Y163000D02*
X550600Y150400D01*
X557500Y176000D02*
Y189500D01*
X569200Y201200D02*
X637000D01*
X557500Y189500D02*
X569200Y201200D01*
X551000Y176000D02*
Y193000D01*
X584600Y226600D02*
X637000D01*
X551000Y193000D02*
X584600Y226600D01*
X607000Y100000D02*
X636600D01*
X637000Y99600D01*
X153105Y449388D02*
X168612D01*
X183398Y525095D02*
X183501Y524991D01*
X139000Y370000D02*
X141047Y372047D01*
X148047D01*
X174000Y398000D01*
X192003D01*
X193501Y399499D01*
X186000Y377291D02*
Y389000D01*
X193501Y399499D02*
Y408991D01*
X239000Y254500D02*
X239500Y254000D01*
X239000Y254500D02*
Y271000D01*
X153001Y449491D02*
X153105Y449388D01*
X192291Y371000D02*
X198000D01*
X186000Y377291D02*
X192291Y371000D01*
X138000D02*
X139000Y370000D01*
X103000Y371000D02*
X138000D01*
X198000D02*
X198501Y371501D01*
Y408991D01*
X370500Y288000D02*
X371000Y287500D01*
X373000Y275500D02*
X374500Y274000D01*
X371000Y287500D02*
X373000Y285500D01*
Y275500D02*
Y285500D01*
X396000Y276500D02*
Y287500D01*
X393500Y274000D02*
X396000Y276500D01*
X371000Y333000D02*
X373000Y335000D01*
Y341000D02*
X377000Y345000D01*
X373000Y335000D02*
Y341000D01*
X377000Y345000D02*
Y353606D01*
X376598Y354008D02*
X377000Y353606D01*
X393000Y336000D02*
X396000Y333000D01*
X393000Y336000D02*
Y341000D01*
X389000Y345000D02*
X393000Y341000D01*
X389000Y345000D02*
Y353709D01*
X389298Y354008D01*
X542000Y87172D02*
Y103000D01*
X544500Y105500D01*
Y117000D01*
X543172Y86000D02*
X552000D01*
X542000Y87172D02*
X543172Y86000D01*
X525000Y117000D02*
Y128000D01*
X490000Y139000D02*
X514000D01*
X525000Y128000D01*
X490000Y117000D02*
X512000D01*
D39*
X344000Y558000D02*
X350000Y552000D01*
X344000Y572150D02*
X344100Y572250D01*
X344000Y558000D02*
Y572150D01*
X350000Y552000D02*
X360000D01*
X372000Y540000D01*
Y508200D02*
Y540000D01*
X392000Y563000D02*
X398200Y556800D01*
X392000Y563000D02*
Y573500D01*
X372000Y508200D02*
X381200Y499000D01*
Y506200D01*
X398107Y530907D02*
X398200Y531000D01*
X398107Y523107D02*
Y530907D01*
X381200Y506200D02*
X398107Y523107D01*
X60000Y424800D02*
X102000Y466800D01*
Y479000D01*
X381200Y429000D02*
Y499000D01*
X398000Y547800D02*
X398200Y548000D01*
X398000Y532000D02*
Y547800D01*
X398200Y548000D02*
Y556800D01*
X448000Y429000D02*
X484000Y393000D01*
X381200Y420200D02*
Y429000D01*
X377000Y416000D02*
X381200Y420200D01*
Y429000D02*
X448000D01*
X236000Y233000D02*
X249000D01*
X224000Y260000D02*
X225995Y258005D01*
X230998Y253002D01*
Y238002D02*
Y253002D01*
Y238002D02*
X236000Y233000D01*
X97000Y260000D02*
X224000D01*
X93400Y246500D02*
X94000Y247100D01*
Y257000D01*
X97000Y260000D01*
X376598Y404008D02*
X377000Y404409D01*
Y416000D01*
X227000Y126000D02*
X246000D01*
X254000Y134000D01*
Y220346D01*
X249000Y233000D02*
X250500Y231500D01*
Y223846D02*
Y231500D01*
Y223846D02*
X254000Y220346D01*
X249000Y233000D02*
X264000D01*
D40*
X139150Y217500D02*
X145500D01*
X155000Y275000D02*
Y308000D01*
X187000D01*
X139150Y209150D02*
X139750Y209750D01*
D41*
X139150D02*
Y217500D01*
D42*
X473000Y308000D02*
X588000D01*
X652000Y190800D02*
Y244000D01*
X588000Y308000D02*
X652000Y244000D01*
X396000Y385000D02*
X473000Y308000D01*
X637000Y175800D02*
X652000Y190800D01*
X531875Y183877D02*
X541997Y193998D01*
X531875Y176375D02*
Y183877D01*
X283000Y385000D02*
X396000D01*
X258000Y410000D02*
X283000Y385000D01*
X540000Y137000D02*
X551000Y126000D01*
X248501Y408991D02*
Y410000D01*
X258000D01*
X531500Y176000D02*
X531875Y176375D01*
X551000Y117000D02*
X551000Y117000D01*
X551000Y117000D02*
Y126000D01*
X577000Y117000D02*
X577000Y117000D01*
X593000D01*
X545488Y166000D02*
X563000D01*
X544500Y176000D02*
X544548Y175952D01*
Y166940D02*
Y175952D01*
Y166940D02*
X545488Y166000D01*
X572800Y175800D02*
X637000D01*
X563000Y166000D02*
X572800Y175800D01*
X551000Y102000D02*
X552000Y101000D01*
X551000Y102000D02*
Y117000D01*
X557500D02*
X577000D01*
D43*
X109000Y246500D02*
X109300D01*
X126450Y245500D02*
Y246500D01*
X109300D02*
X126450D01*
X109300Y223500D02*
Y246500D01*
D44*
X138650Y184900D02*
Y185229D01*
X132250Y178500D02*
X138650Y184900D01*
X139150Y185729D02*
Y189500D01*
X138650Y185229D02*
X139150Y185729D01*
X117017Y178500D02*
X132250D01*
D45*
X94750Y220875D02*
D03*
D46*
X207125Y240125D02*
D03*
D47*
X184625Y24250D02*
D03*
D48*
X139125Y200182D02*
D03*
D49*
X339200Y583000D02*
D03*
X397000D02*
D03*
D50*
X637000Y226600D02*
D03*
Y201200D02*
D03*
Y175800D02*
D03*
Y150400D02*
D03*
Y125000D02*
D03*
X60000Y424800D02*
D03*
Y450200D02*
D03*
Y475600D02*
D03*
Y501000D02*
D03*
D51*
X637000Y99600D02*
D03*
X60000Y526400D02*
D03*
D52*
X421642Y211724D02*
D03*
X294642D02*
D03*
D53*
X320000Y199000D02*
D03*
X345399D02*
D03*
X370797D02*
D03*
X396196D02*
D03*
X396242Y224424D02*
D03*
X370844Y224440D02*
D03*
X345445D02*
D03*
X320046D02*
D03*
D54*
X562600Y349750D02*
D03*
D55*
X591000Y363600D02*
D03*
X562600Y377450D02*
D03*
X591000Y391300D02*
D03*
X562600Y405150D02*
D03*
X591000Y419000D02*
D03*
X562600Y432850D02*
D03*
X591000Y446700D02*
D03*
X562600Y460550D02*
D03*
D56*
X576800Y530100D02*
D03*
Y280200D02*
D03*
D57*
X632000Y40000D02*
D03*
X40000D02*
D03*
X40000Y611000D02*
D03*
X632000D02*
D03*
D58*
X355400Y587650D02*
D03*
X415000Y510000D02*
D03*
X346000Y531000D02*
D03*
X507600Y220000D02*
D03*
X186000Y389000D02*
D03*
X339000Y618000D02*
D03*
X161145Y418231D02*
D03*
X255000Y341000D02*
D03*
X253100Y366100D02*
D03*
X322000Y488000D02*
D03*
X286509Y504491D02*
D03*
X174000Y545000D02*
D03*
X192000Y555102D02*
D03*
X155000Y275000D02*
D03*
X187000Y308000D02*
D03*
X220995Y269600D02*
D03*
X254000Y272000D02*
D03*
X222000Y392000D02*
D03*
X286724Y441276D02*
D03*
X173000Y450000D02*
D03*
X522000Y192000D02*
D03*
X541997Y193998D02*
D03*
X484000Y393000D02*
D03*
X189000Y499000D02*
D03*
X569000Y64000D02*
D03*
X416000Y341000D02*
D03*
X278000Y352000D02*
D03*
X117000Y426000D02*
D03*
X129000Y449000D02*
D03*
X445000Y409000D02*
D03*
X565000Y230000D02*
D03*
X468000Y185000D02*
D03*
X512000Y154000D02*
D03*
X102000Y500000D02*
D03*
X120000Y398000D02*
D03*
X271000Y268000D02*
D03*
X300000Y428000D02*
D03*
X417000Y388000D02*
D03*
X287000Y372400D02*
D03*
X540000Y137000D02*
D03*
X256000Y396000D02*
D03*
X243000Y551000D02*
D03*
X248000Y500000D02*
D03*
X593000Y117000D02*
D03*
X264000Y233000D02*
D03*
X139000Y370000D02*
D03*
X552000Y101000D02*
D03*
D59*
X124500Y226250D02*
D03*
X154750D02*
D03*
X169750D02*
D03*
X184750D02*
D03*
X124750Y209750D02*
D03*
X154750D02*
D03*
X169750D02*
D03*
X184750D02*
D03*
X109750Y189000D02*
D03*
Y164000D02*
D03*
X131500Y168500D02*
D03*
X151500Y169500D02*
D03*
X134000Y66250D02*
D03*
X151000D02*
D03*
X139750Y226250D02*
D03*
X94750Y199000D02*
D03*
X139750Y209750D02*
D03*
X114750Y24000D02*
D03*
X94750D02*
D03*
X239750Y19000D02*
D03*
X218750Y19250D02*
D03*
X134250Y48750D02*
D03*
X151250D02*
D03*
X94750Y174000D02*
D03*
Y89000D02*
D03*
%TF.MD5,3baba3a799806cbb2d387639d293898b*%
M02*
