%TF.GenerationSoftware,Altium Limited,Altium Designer,20.2.5 (213)*%
G04 Layer_Color=0*
%FSLAX44Y44*%
%MOMM*%
%TF.SameCoordinates,3FE501F2-1E46-4B48-ABA6-5278C61F2325*%
%TF.FilePolarity,Positive*%
%TF.FileFunction,Other,Mechanical_13*%
%TF.Part,Single*%
G01*
G75*
%TA.AperFunction,NonConductor*%
%ADD64C,0.1000*%
D64*
X214998Y347098D02*
Y395398D01*
X86999D02*
X214998D01*
X86999Y347098D02*
Y395398D01*
Y347098D02*
X214998D01*
X113000Y286750D02*
Y329750D01*
X162750D01*
Y286750D02*
Y329750D01*
X113000Y286750D02*
X162750D01*
X141499Y395752D02*
X162498D01*
X141499Y382251D02*
Y395752D01*
Y382251D02*
X162498D01*
Y395752D01*
X273500Y232500D02*
Y249500D01*
Y232500D02*
X282500D01*
Y249500D01*
X273500D02*
X282500D01*
X474500Y288500D02*
Y305500D01*
Y288500D02*
X483500D01*
Y305500D01*
X474500D02*
X483500D01*
X363500Y526502D02*
Y535500D01*
Y526502D02*
X380500D01*
Y535500D01*
X363500D02*
X380500D01*
X95060Y86998D02*
X150940D01*
Y47501D02*
Y86998D01*
X95060Y47501D02*
X150940D01*
X95060D02*
Y86998D01*
X349500Y613500D02*
Y622498D01*
X366500D01*
Y613500D02*
Y622498D01*
X349500Y613500D02*
X366500D01*
X155248Y348499D02*
Y369498D01*
Y348499D02*
X168749D01*
Y369498D01*
X155248D02*
X168749D01*
X187250Y448502D02*
X200750D01*
X187250D02*
Y469501D01*
X200750D01*
Y448502D02*
Y469501D01*
X416500Y289500D02*
X425498D01*
Y272500D02*
Y289500D01*
X416500Y272500D02*
X425498D01*
X416500D02*
Y289500D01*
X490500Y305500D02*
X499498D01*
Y288500D02*
Y305500D01*
X490500Y288500D02*
X499498D01*
X490500D02*
Y305500D01*
X435003Y225750D02*
X465000D01*
Y249750D01*
X435003D02*
X465000D01*
X435003Y225750D02*
Y249750D01*
X496752Y163502D02*
Y184501D01*
X483251D02*
X496752D01*
X483251Y163502D02*
Y184501D01*
Y163502D02*
X496752D01*
X558752Y64502D02*
Y85501D01*
X545251D02*
X558752D01*
X545251Y64502D02*
Y85501D01*
Y64502D02*
X558752D01*
X598999Y100000D02*
Y137000D01*
X615000D01*
Y100000D02*
Y137000D01*
X598999Y100000D02*
X615000D01*
X539251Y208502D02*
X552752D01*
X539251D02*
Y229501D01*
X552752D01*
Y208502D02*
Y229501D01*
X358498Y350008D02*
Y407508D01*
X407498D01*
Y350008D02*
Y407508D01*
X358498Y350008D02*
X407498D01*
X367502Y332749D02*
X399502D01*
X367502Y287749D02*
Y332749D01*
Y287749D02*
X399502D01*
Y332749D01*
X424500Y286500D02*
Y303500D01*
X415502Y286500D02*
X424500D01*
X415502D02*
Y303500D01*
X424500D01*
X327500Y319500D02*
X336500D01*
X327500Y302500D02*
Y319500D01*
Y302500D02*
X336500D01*
Y319500D01*
X399497Y249750D02*
Y273750D01*
X369500D02*
X399497D01*
X369500Y249750D02*
Y273750D01*
Y249750D02*
X399497D01*
X356500Y302500D02*
Y319500D01*
X347502Y302500D02*
X356500D01*
X347502D02*
Y319500D01*
X356500D01*
X263997Y231750D02*
Y255750D01*
X234000D02*
X263997D01*
X234000Y231750D02*
Y255750D01*
Y231750D02*
X263997D01*
X227700Y239500D02*
Y248500D01*
X244700D01*
Y239500D02*
Y248500D01*
X227700Y239500D02*
X244700D01*
X434498Y318748D02*
X466498D01*
Y273749D02*
Y318748D01*
X434498Y273749D02*
X466498D01*
X434498D02*
Y318748D01*
X475502Y336006D02*
Y393506D01*
X426502D02*
X475502D01*
X426502Y336006D02*
Y393506D01*
Y336006D02*
X475502D01*
X570251Y138498D02*
X583752D01*
X570251Y117499D02*
Y138498D01*
Y117499D02*
X583752D01*
Y138498D01*
X264500Y369500D02*
X273500D01*
X264500D02*
Y386500D01*
X273500D01*
Y369500D02*
Y386500D01*
X230250Y384500D02*
X310250D01*
Y349500D02*
Y384500D01*
X230250Y350250D02*
Y384500D01*
Y349500D02*
X310250D01*
X230250D02*
Y350250D01*
X151251Y406991D02*
Y526991D01*
X271501D01*
Y406991D02*
Y526991D01*
X151251Y406991D02*
X271501D01*
X161500Y538500D02*
Y547500D01*
X144500Y538500D02*
X161500D01*
X144500D02*
Y547500D01*
X161500D01*
X302500Y504500D02*
X311500D01*
Y487500D02*
Y504500D01*
X302500Y487500D02*
X311500D01*
X302500D02*
Y504500D01*
Y451500D02*
X311500D01*
X302500D02*
Y468500D01*
X311500D01*
Y451500D02*
Y468500D01*
X96500Y432300D02*
X105500D01*
X96500D02*
Y449300D01*
X105500D01*
Y432300D02*
Y449300D01*
X147700Y407500D02*
Y416500D01*
X130700Y407500D02*
X147700D01*
X130700D02*
Y416500D01*
X147700D01*
X266500Y331500D02*
Y340500D01*
X283500D01*
Y331500D02*
Y340500D01*
X266500Y331500D02*
X283500D01*
X414500Y526500D02*
Y535500D01*
X397500D02*
X414500D01*
X397500Y526500D02*
Y535500D01*
Y526500D02*
X414500D01*
X488248Y65502D02*
X501749D01*
Y86501D01*
X488248D02*
X501749D01*
X488248Y65502D02*
Y86501D01*
X515248Y65502D02*
X528749D01*
Y86501D01*
X515248D02*
X528749D01*
X515248Y65502D02*
Y86501D01*
X517248Y229498D02*
X530749D01*
Y208499D02*
Y229498D01*
X517248Y208499D02*
X530749D01*
X517248D02*
Y229498D01*
X483251Y138498D02*
X496752D01*
X483251Y117499D02*
Y138498D01*
Y117499D02*
X496752D01*
Y138498D01*
X545248Y64502D02*
X558749D01*
Y85501D01*
X545248D02*
X558749D01*
X545248Y64502D02*
Y85501D01*
X229700Y305100D02*
X248799D01*
X229700Y267500D02*
Y305100D01*
Y267500D02*
X248799D01*
Y305100D01*
X93999Y479000D02*
X110000D01*
Y516000D01*
X93999D02*
X110000D01*
X93999Y479000D02*
Y516000D01*
X47250Y412150D02*
X72750D01*
X47250D02*
Y539150D01*
X72750D01*
Y412150D02*
Y539150D01*
X452292Y-106826D02*
Y244925D01*
Y-106826D02*
X452542D01*
X263542Y244925D02*
X452292D01*
X263542Y-106826D02*
Y244925D01*
Y-106826D02*
X452542D01*
X122000Y247750D02*
X169250D01*
Y187500D02*
Y247750D01*
X122000Y187500D02*
X169250D01*
X122000D02*
Y247750D01*
X105310Y117252D02*
Y156749D01*
X161190D01*
Y117252D02*
Y156749D01*
X105310Y117252D02*
X161190D01*
X240000Y78498D02*
Y95499D01*
X206500D02*
X240000D01*
X206500Y78498D02*
Y95499D01*
Y78498D02*
X240000D01*
X204500Y13000D02*
X230500D01*
X204500D02*
Y26501D01*
X230500D01*
Y13000D02*
Y26501D01*
X109700Y242000D02*
Y250998D01*
X92700D02*
X109700D01*
X92700Y242000D02*
Y250998D01*
Y242000D02*
X109700D01*
X93000Y219002D02*
Y228000D01*
Y219002D02*
X110000D01*
Y228000D01*
X93000D02*
X110000D01*
X200748Y206500D02*
X217749D01*
Y240000D01*
X200748D02*
X217749D01*
X200748Y206500D02*
Y240000D01*
X173000Y181000D02*
X246000D01*
Y107750D02*
Y181000D01*
X173000Y107750D02*
X246000D01*
X173000D02*
Y181000D01*
X206000Y43000D02*
X240750D01*
X206000D02*
Y59000D01*
X240750D01*
Y43000D02*
Y59000D01*
X97328Y21750D02*
Y105000D01*
Y21750D02*
X191000D01*
X97328Y105000D02*
X191000D01*
Y21750D02*
Y105000D01*
X104000Y142748D02*
Y159749D01*
X137500D01*
Y142748D02*
Y159749D01*
X104000Y142748D02*
X137500D01*
X103750Y118748D02*
Y135749D01*
X137250D01*
Y118748D02*
Y135749D01*
X103750Y118748D02*
X137250D01*
X103750Y95498D02*
Y112499D01*
X137250D01*
Y95498D02*
Y112499D01*
X103750Y95498D02*
X137250D01*
X548300Y250850D02*
Y559850D01*
Y250850D02*
X732300D01*
Y559850D01*
X548300D02*
X732300D01*
%TF.MD5,5003d6d48db746856d6c3125ae2a3abe*%
M02*
