%TF.GenerationSoftware,Altium Limited,Altium Designer,20.2.5 (213)*%
G04 Layer_Color=16711935*
%FSLAX44Y44*%
%MOMM*%
%TF.SameCoordinates,3FE501F2-1E46-4B48-ABA6-5278C61F2325*%
%TF.FilePolarity,Negative*%
%TF.FileFunction,Soldermask,Bot*%
%TF.Part,Single*%
G01*
G75*
%TA.AperFunction,SMDPad,CuDef*%
%ADD67R,1.0000X1.4000*%
%ADD68R,1.0000X0.7000*%
%ADD69R,0.2000X0.2000*%
%ADD70R,2.6000X2.4000*%
%ADD71R,0.7000X1.0000*%
%ADD72R,1.4000X1.0000*%
%ADD73R,0.8000X1.0000*%
G04:AMPARAMS|DCode=74|XSize=1.45mm|YSize=1mm|CornerRadius=0.14mm|HoleSize=0mm|Usage=FLASHONLY|Rotation=270.000|XOffset=0mm|YOffset=0mm|HoleType=Round|Shape=RoundedRectangle|*
%AMROUNDEDRECTD74*
21,1,1.4500,0.7200,0,0,270.0*
21,1,1.1700,1.0000,0,0,270.0*
1,1,0.2800,-0.3600,-0.5850*
1,1,0.2800,-0.3600,0.5850*
1,1,0.2800,0.3600,0.5850*
1,1,0.2800,0.3600,-0.5850*
%
%ADD74ROUNDEDRECTD74*%
%ADD75O,0.7500X1.7000*%
%ADD76R,1.2000X1.8000*%
%TA.AperFunction,ComponentPad*%
%ADD77C,0.7600*%
%ADD78C,1.6000*%
%ADD79R,1.6000X1.6000*%
%ADD80C,2.7000*%
%ADD81C,2.3000*%
%ADD82R,1.7900X1.7900*%
%ADD83C,1.7900*%
%ADD84C,4.8600*%
%TA.AperFunction,ViaPad*%
%ADD85C,6.1000*%
%ADD86C,1.3700*%
G36*
X496798Y329582D02*
X508500D01*
X508598Y329573D01*
X508692Y329544D01*
X508779Y329498D01*
X508855Y329435D01*
X508918Y329359D01*
X508964Y329272D01*
X508993Y329178D01*
X509002Y329080D01*
Y318920D01*
X508993Y318822D01*
X508964Y318728D01*
X508918Y318641D01*
X508855Y318565D01*
X508779Y318502D01*
X508692Y318456D01*
X508598Y318427D01*
X508500Y318418D01*
X496798D01*
X496797Y318417D01*
X496749Y318422D01*
X496699Y318427D01*
X496627Y318449D01*
X496605Y318456D01*
X496518Y318502D01*
X496442Y318565D01*
X496380Y318641D01*
X496333Y318728D01*
X496327Y318750D01*
X496305Y318822D01*
X496300Y318871D01*
X496295Y318920D01*
X496300Y318969D01*
X496305Y319018D01*
X496327Y319090D01*
X496333Y319112D01*
X496380Y319199D01*
X496442Y319275D01*
X501167Y324000D01*
X496442Y328725D01*
X496442Y328725D01*
X496414Y328759D01*
X496380Y328801D01*
X496333Y328888D01*
X496305Y328982D01*
X496304Y328991D01*
X496295Y329080D01*
X496305Y329178D01*
X496333Y329272D01*
X496380Y329359D01*
X496442Y329435D01*
X496518Y329498D01*
X496605Y329544D01*
X496699Y329573D01*
X496797Y329582D01*
X496798Y329582D01*
D02*
G37*
G36*
X491682Y329572D02*
X491754Y329550D01*
X491776Y329544D01*
X491863Y329497D01*
X491939Y329435D01*
X491939Y329435D01*
X497020Y324354D01*
X497082Y324278D01*
X497129Y324191D01*
X497157Y324097D01*
X497167Y323999D01*
X497157Y323901D01*
X497136Y323828D01*
X497129Y323806D01*
X497082Y323720D01*
X497020Y323643D01*
X497020Y323643D01*
X491941Y318565D01*
X491865Y318502D01*
X491778Y318456D01*
X491756Y318449D01*
X491684Y318427D01*
X491635Y318422D01*
X491586Y318417D01*
X491586Y318418D01*
X484914D01*
X484816Y318427D01*
X484722Y318456D01*
X484635Y318502D01*
X484559Y318565D01*
X484496Y318641D01*
X484450Y318728D01*
X484421Y318822D01*
X484412Y318920D01*
Y329080D01*
X484421Y329178D01*
X484450Y329272D01*
X484496Y329359D01*
X484559Y329435D01*
X484635Y329497D01*
X484722Y329544D01*
X484816Y329572D01*
X484914Y329582D01*
X491584D01*
X491682Y329572D01*
D02*
G37*
D67*
X163000Y389000D02*
D03*
X141000D02*
D03*
D68*
X278000Y233200D02*
D03*
Y248800D02*
D03*
X479000Y289200D02*
D03*
Y304800D02*
D03*
X421000Y273200D02*
D03*
Y288800D02*
D03*
X495000Y289200D02*
D03*
Y304800D02*
D03*
X269000Y370200D02*
D03*
Y385800D02*
D03*
X307000Y503800D02*
D03*
Y488200D02*
D03*
Y452200D02*
D03*
Y467800D02*
D03*
X101000Y433000D02*
D03*
Y448600D02*
D03*
D69*
X489500Y324000D02*
D03*
X504500D02*
D03*
D70*
X101500Y67250D02*
D03*
X144500D02*
D03*
D71*
X365800Y618000D02*
D03*
X350200D02*
D03*
X228400Y244000D02*
D03*
X244000D02*
D03*
X160800Y543000D02*
D03*
X145200D02*
D03*
X147000Y412000D02*
D03*
X131400D02*
D03*
X267200Y336000D02*
D03*
X282800D02*
D03*
D72*
X162000Y370000D02*
D03*
Y348000D02*
D03*
X194000Y448000D02*
D03*
Y470000D02*
D03*
X490000Y163000D02*
D03*
Y185000D02*
D03*
X552000Y64000D02*
D03*
Y86000D02*
D03*
X546000Y230000D02*
D03*
Y208000D02*
D03*
X524000D02*
D03*
Y230000D02*
D03*
D73*
X450000Y227000D02*
D03*
X459500Y248000D02*
D03*
X440500D02*
D03*
D74*
X438000Y273500D02*
D03*
Y319000D02*
D03*
X463000Y273500D02*
D03*
Y319000D02*
D03*
D75*
X444701Y390006D02*
D03*
X457402D02*
D03*
X470102D02*
D03*
X432001Y390006D02*
D03*
Y340006D02*
D03*
X444701D02*
D03*
X470102D02*
D03*
X457402D02*
D03*
D76*
X137750Y151250D02*
D03*
X103750D02*
D03*
X137500Y127250D02*
D03*
X103500D02*
D03*
X137500Y104000D02*
D03*
X103500D02*
D03*
D77*
X339200Y583000D02*
D03*
X397000D02*
D03*
D78*
X637000Y226600D02*
D03*
Y201200D02*
D03*
Y175800D02*
D03*
Y150400D02*
D03*
Y125000D02*
D03*
X60000Y424800D02*
D03*
Y450200D02*
D03*
Y475600D02*
D03*
Y501000D02*
D03*
D79*
X637000Y99600D02*
D03*
X60000Y526400D02*
D03*
D80*
X421642Y211724D02*
D03*
X294642D02*
D03*
D81*
X320000Y199000D02*
D03*
X345399D02*
D03*
X370797D02*
D03*
X396196D02*
D03*
X396242Y224424D02*
D03*
X370844Y224440D02*
D03*
X345445D02*
D03*
X320046D02*
D03*
D82*
X562600Y349750D02*
D03*
D83*
X591000Y363600D02*
D03*
X562600Y377450D02*
D03*
X591000Y391300D02*
D03*
X562600Y405150D02*
D03*
X591000Y419000D02*
D03*
X562600Y432850D02*
D03*
X591000Y446700D02*
D03*
X562600Y460550D02*
D03*
D84*
X576800Y530100D02*
D03*
Y280200D02*
D03*
D85*
X632000Y40000D02*
D03*
X40000D02*
D03*
X40000Y611000D02*
D03*
X632000D02*
D03*
D86*
X415000Y510000D02*
D03*
X346000Y531000D02*
D03*
X522000Y192000D02*
D03*
X541997Y193998D02*
D03*
X417000Y388000D02*
D03*
X243000Y551000D02*
D03*
X248000Y500000D02*
D03*
X593000Y117000D02*
D03*
X552000Y101000D02*
D03*
%TF.MD5,6a3d6620250a3c11b4a476709ae8e22d*%
M02*
