%TF.GenerationSoftware,Altium Limited,Altium Designer,20.2.5 (213)*%
G04 Layer_Color=65535*
%FSLAX44Y44*%
%MOMM*%
%TF.SameCoordinates,3FE501F2-1E46-4B48-ABA6-5278C61F2325*%
%TF.FilePolarity,Positive*%
%TF.FileFunction,Legend,Top*%
%TF.Part,Single*%
G01*
G75*
%TA.AperFunction,NonConductor*%
%ADD63C,0.2500*%
%ADD64C,0.1000*%
%ADD65C,0.2000*%
%ADD66C,0.2540*%
%ADD87C,0.6000*%
%ADD88C,0.2100*%
%ADD89C,0.3000*%
G36*
X485622Y514962D02*
X477289D01*
Y526628D01*
X477168D01*
Y526628D01*
X477651Y531529D01*
X479080Y536242D01*
X481402Y540585D01*
X484526Y544391D01*
X485607Y545279D01*
X485622Y514962D01*
D02*
G37*
G36*
X507190Y551266D02*
X511902Y549837D01*
X513956Y548739D01*
X513956Y526628D01*
X514056D01*
X513655Y523583D01*
X512480Y520745D01*
X510610Y518307D01*
X508173Y516437D01*
X505335Y515262D01*
X502289Y514861D01*
X502289D01*
X490622Y514962D01*
Y548739D01*
X490622Y548739D01*
X492676Y549837D01*
X497388Y551266D01*
X502289Y551749D01*
X507190Y551266D01*
D02*
G37*
G36*
X520052Y544391D02*
X523176Y540585D01*
X525498Y536242D01*
X526927Y531529D01*
X527410Y526628D01*
Y526628D01*
X527289Y486628D01*
X502289D01*
Y486528D01*
X499243Y486929D01*
X496405Y488104D01*
X493968Y489974D01*
X492098Y492411D01*
X490923Y495249D01*
X490522Y498295D01*
X490622Y509962D01*
X502289D01*
X502289Y509881D01*
X502289D01*
X505556Y510203D01*
X508698Y511156D01*
X511593Y512703D01*
X514131Y514786D01*
X516214Y517324D01*
X517761Y520219D01*
X518714Y523361D01*
X519036Y526628D01*
X518956Y545262D01*
X518971Y545279D01*
X520052Y544391D01*
D02*
G37*
G36*
X485622Y498295D02*
X485542D01*
X485863Y495028D01*
X486816Y491886D01*
X488364Y488991D01*
X490447Y486453D01*
X492985Y484370D01*
X493437Y484128D01*
X492985Y483886D01*
X490447Y481804D01*
X488364Y479266D01*
X486816Y476371D01*
X485863Y473229D01*
X485542Y469962D01*
X485863Y466694D01*
X486816Y463553D01*
X488364Y460657D01*
X490340Y458250D01*
X480178Y458295D01*
X480178Y458295D01*
X479080Y460348D01*
X477651Y465061D01*
X477168Y469962D01*
X477289Y509962D01*
X485622D01*
Y498295D01*
D02*
G37*
G36*
X505335Y481328D02*
X508173Y480152D01*
X510610Y478282D01*
X512480Y475845D01*
X513655Y473007D01*
X514056Y469962D01*
X513655Y466916D01*
X512480Y464078D01*
X510610Y461641D01*
X508173Y459771D01*
X505335Y458595D01*
X502289Y458194D01*
X499243Y458595D01*
X496405Y459771D01*
X493968Y461641D01*
X492098Y464078D01*
X490923Y466916D01*
X490522Y469962D01*
X490923Y473007D01*
X492098Y475845D01*
X493968Y478282D01*
X496405Y480152D01*
X499243Y481328D01*
X502289Y481729D01*
X505335Y481328D01*
D02*
G37*
G36*
X527289Y481628D02*
Y469962D01*
X527410D01*
X526927Y465061D01*
X525498Y460348D01*
X523176Y456005D01*
X520052Y452198D01*
X516245Y449074D01*
X511902Y446753D01*
X507190Y445323D01*
X502289Y444841D01*
X497388Y445323D01*
X492676Y446753D01*
X488332Y449074D01*
X484526Y452198D01*
X483638Y453280D01*
X502289Y453295D01*
Y453214D01*
X505556Y453536D01*
X508698Y454489D01*
X511593Y456037D01*
X514131Y458120D01*
X516214Y460657D01*
X517761Y463553D01*
X518714Y466694D01*
X519036Y469962D01*
X518714Y473229D01*
X517761Y476371D01*
X516214Y479266D01*
X514238Y481674D01*
X527289Y481628D01*
D02*
G37*
D63*
X510750Y130000D02*
G03*
X510750Y130000I-1000J0D01*
G01*
X404498Y389508D02*
G03*
X404498Y389508I-500J0D01*
G01*
X225668Y219002D02*
X224002Y217335D01*
Y214003D01*
X225668Y212337D01*
X232332D01*
X233998Y214003D01*
Y217335D01*
X232332Y219002D01*
X224002Y222334D02*
X233998D01*
Y227332D01*
X232332Y228998D01*
X230666D01*
X229000D01*
X227334Y227332D01*
Y222334D01*
X233998Y232331D02*
Y235663D01*
Y233997D01*
X224002D01*
X225668Y232331D01*
X146332Y90248D02*
X147998Y91915D01*
Y95247D01*
X146332Y96913D01*
X139668D01*
X138002Y95247D01*
Y91915D01*
X139668Y90248D01*
X138002Y85250D02*
Y81918D01*
X139668Y80252D01*
X143000D01*
X144666Y81918D01*
Y85250D01*
X143000Y86916D01*
X139668D01*
X138002Y85250D01*
Y76919D02*
Y73587D01*
Y75253D01*
X147998D01*
X146332Y76919D01*
X216336Y37832D02*
X214669Y39498D01*
X211337D01*
X209671Y37832D01*
Y31168D01*
X211337Y29502D01*
X214669D01*
X216336Y31168D01*
X221334Y29502D02*
X224666D01*
X226332Y31168D01*
Y34500D01*
X224666Y36166D01*
X221334D01*
X219668Y34500D01*
Y31168D01*
X221334Y29502D01*
X236329D02*
X229664D01*
X236329Y36166D01*
Y37832D01*
X234663Y39498D01*
X231331D01*
X229664Y37832D01*
X138748Y148413D02*
X128752D01*
Y143414D01*
X130418Y141748D01*
X137082D01*
X138748Y143414D01*
Y148413D01*
X128752Y136750D02*
Y133418D01*
X130418Y131752D01*
X133750D01*
X135416Y133418D01*
Y136750D01*
X133750Y138416D01*
X130418D01*
X128752Y136750D01*
Y128419D02*
Y125087D01*
Y126753D01*
X138748D01*
X137082Y128419D01*
X89793Y208335D02*
X94792Y216993D01*
X99120Y214494D01*
X99730Y212218D01*
X98064Y209332D01*
X95788Y208722D01*
X91459Y211221D01*
X94345Y209555D02*
X95565Y205003D01*
X99894Y202504D02*
X104059Y209718D01*
X102393Y206833D01*
X100950Y207666D01*
X103836Y206000D01*
X102393Y206833D01*
X104059Y209718D01*
X106335Y210328D01*
X110664Y207829D02*
X105665Y199172D01*
X109994Y196672D01*
X112270Y197282D01*
X113103Y198725D01*
X113936Y200168D01*
X113326Y202444D01*
X108997Y204943D01*
X114323Y194173D02*
X117208Y192507D01*
X115766Y193340D01*
X120764Y201998D01*
X118488Y201388D01*
X89850Y182668D02*
X94849Y191326D01*
X99177Y188827D01*
X99787Y186551D01*
X98121Y183665D01*
X95845Y183055D01*
X91516Y185554D01*
X94402Y183888D02*
X95622Y179336D01*
X99951Y176837D02*
X104116Y184051D01*
X102450Y181166D01*
X101007Y181999D01*
X103893Y180333D01*
X102450Y181166D01*
X104116Y184051D01*
X106392Y184661D01*
X110721Y182162D02*
X105722Y173505D01*
X110051Y171005D01*
X112327Y171615D01*
X113160Y173058D01*
X113993Y174501D01*
X113383Y176777D01*
X109054Y179276D01*
X120151Y165174D02*
X114380Y168506D01*
X123484Y170946D01*
X124317Y172389D01*
X123707Y174665D01*
X120821Y176331D01*
X118545Y175721D01*
X182998Y238661D02*
X174668D01*
X173002Y236995D01*
Y233663D01*
X174668Y231997D01*
X182998D01*
Y222000D02*
X173002D01*
Y226998D01*
X174668Y228664D01*
X178000D01*
X179666Y226998D01*
Y222000D01*
Y212003D02*
Y217001D01*
X178000Y218668D01*
X174668D01*
X173002Y217001D01*
Y212003D01*
Y208671D02*
Y205339D01*
Y207005D01*
X182998D01*
X181332Y208671D01*
X217335Y72082D02*
X215669Y73748D01*
X212337D01*
X210671Y72082D01*
Y65418D01*
X212337Y63752D01*
X215669D01*
X217335Y65418D01*
X222334Y63752D02*
X225666D01*
X227332Y65418D01*
Y68750D01*
X225666Y70416D01*
X222334D01*
X220668Y68750D01*
Y65418D01*
X222334Y63752D01*
X230665Y72082D02*
X232331Y73748D01*
X235663D01*
X237329Y72082D01*
Y70416D01*
X235663Y68750D01*
X233997D01*
X235663D01*
X237329Y67084D01*
Y65418D01*
X235663Y63752D01*
X232331D01*
X230665Y65418D01*
X194748Y39079D02*
X184752D01*
Y34081D01*
X186418Y32415D01*
X193082D01*
X194748Y34081D01*
Y39079D01*
X184752Y27416D02*
Y24084D01*
X186418Y22418D01*
X189750D01*
X191416Y24084D01*
Y27416D01*
X189750Y29082D01*
X186418D01*
X184752Y27416D01*
Y12421D02*
Y19085D01*
X191416Y12421D01*
X193082D01*
X194748Y14087D01*
Y17419D01*
X193082Y19085D01*
D64*
X92500Y347000D02*
Y360750D01*
Y381250D02*
Y395500D01*
X210250Y381250D02*
Y395500D01*
Y347000D02*
Y360750D01*
X92500Y347000D02*
X210250D01*
X92500Y395500D02*
X210250D01*
X160000Y314350D02*
Y321250D01*
Y294750D02*
Y301650D01*
X115750Y314350D02*
Y330500D01*
Y286000D02*
Y301650D01*
X150750Y330500D02*
X160000Y321250D01*
X115750Y330500D02*
X150750D01*
X151250Y286000D02*
X160000Y294750D01*
X115750Y286000D02*
X151250D01*
X368500Y535500D02*
X375500D01*
X368500Y526500D02*
X375500D01*
X505000Y125000D02*
Y168000D01*
Y125000D02*
X564500D01*
Y168000D01*
X505000D02*
X564500D01*
X598250Y103500D02*
Y133500D01*
X616000Y103500D02*
Y133500D01*
X598250Y103500D02*
X599250D01*
X614750D02*
X616000D01*
X614750Y133500D02*
X616000D01*
X598250D02*
X599250D01*
X358498Y365008D02*
X407498D01*
X358498D02*
Y393008D01*
X407498Y365008D02*
Y393008D01*
X358498D02*
X407498D01*
X377000Y333750D02*
X390000D01*
X400000Y295750D02*
Y324750D01*
X377000Y286750D02*
X390000D01*
X367000Y295750D02*
Y324750D01*
X415500Y291500D02*
Y298500D01*
X424500Y291500D02*
Y298500D01*
X327500Y307500D02*
Y314500D01*
X336500Y307500D02*
Y314500D01*
X398000Y253750D02*
Y265500D01*
X371000Y253750D02*
Y265500D01*
Y253750D02*
X379250D01*
X389750D02*
X398000D01*
X347500Y307500D02*
Y314500D01*
X356500Y307500D02*
Y314500D01*
X355250Y333000D02*
Y347000D01*
X327250Y333000D02*
X355250D01*
X327250Y347000D02*
X355250D01*
X327250Y333000D02*
Y347000D01*
X262500Y235750D02*
Y247500D01*
X235500Y235750D02*
Y247500D01*
Y235750D02*
X243750D01*
X254250D02*
X262500D01*
X583750Y122750D02*
Y133250D01*
X570250Y122750D02*
Y133250D01*
X240000Y349500D02*
Y357750D01*
Y349500D02*
X301000D01*
Y357750D01*
X301250Y376500D02*
Y384500D01*
X239750D02*
X301250D01*
X239750Y376250D02*
Y384500D01*
X252501Y425491D02*
Y508491D01*
X169501Y425491D02*
Y508491D01*
X252501D01*
X169501Y425491D02*
X252501D01*
X402500Y535500D02*
X409500D01*
X402500Y526500D02*
X409500D01*
X488250Y70750D02*
Y81250D01*
X501750Y70750D02*
Y81250D01*
X515250Y70750D02*
Y81250D01*
X528750Y70750D02*
Y81250D01*
X496750Y122750D02*
Y133250D01*
X483250Y122750D02*
Y133250D01*
X545250Y69750D02*
Y80250D01*
X558750Y69750D02*
Y80250D01*
X250500Y280250D02*
Y301000D01*
X227500Y280250D02*
X250500D01*
X227500D02*
Y301000D01*
X93250Y512500D02*
X94250D01*
X109750D02*
X111000D01*
X109750Y482500D02*
X111000D01*
X93250D02*
X94250D01*
X111000D02*
Y512500D01*
X93250Y482500D02*
Y512500D01*
X47300Y539100D02*
X72700D01*
Y412100D02*
Y539100D01*
X47300Y412100D02*
Y539100D01*
Y412100D02*
X72700D01*
X452242Y1925D02*
Y96924D01*
X443133D02*
X452242D01*
X263642Y1925D02*
Y96924D01*
X273174D01*
X263642Y1925D02*
X452242D01*
X443133Y96924D02*
Y245025D01*
X273174Y96924D02*
Y245025D01*
X443133D01*
X169750Y197500D02*
Y237500D01*
X168750Y197500D02*
X169750D01*
X168750Y237500D02*
X169750D01*
X121500Y197500D02*
Y237500D01*
X122500D01*
X121500Y197500D02*
X122500D01*
X109000Y157000D02*
X157500D01*
X109000Y117000D02*
X157500D01*
Y150000D02*
Y157000D01*
Y117000D02*
Y124000D01*
X109000Y117000D02*
Y124000D01*
Y150000D02*
Y157000D01*
X199000Y76750D02*
X247500D01*
X199000Y97250D02*
X247500D01*
X199000Y76750D02*
Y97250D01*
X247500Y85250D02*
Y97250D01*
Y76750D02*
Y85250D01*
X207000Y12500D02*
X228500D01*
X207000Y27000D02*
X228500D01*
Y12500D02*
Y14750D01*
Y24750D02*
Y27000D01*
X207000Y12500D02*
Y14750D01*
Y24750D02*
Y27000D01*
X97700Y242000D02*
X104700D01*
X97700Y251000D02*
X104700D01*
X98000Y228000D02*
X105000D01*
X98000Y219000D02*
X105000D01*
X199000Y199000D02*
Y247500D01*
X219500Y199000D02*
Y247500D01*
X199000D02*
X219500D01*
X207500Y199000D02*
X219500D01*
X199000D02*
X207500D01*
X222000Y181750D02*
X247000D01*
X222000Y106500D02*
X247000D01*
Y181750D01*
X172000Y106750D02*
X197000D01*
X172000Y182000D02*
X197000D01*
X172000Y106750D02*
Y182000D01*
X206000Y60250D02*
X240250D01*
X196500Y51000D02*
X202000D01*
X199250Y48000D02*
Y54000D01*
X206000Y41750D02*
X240250D01*
X101750Y106000D02*
X165500D01*
X186250Y85250D01*
Y70250D02*
Y85250D01*
X101750Y70250D02*
Y106000D01*
Y20500D02*
X165500D01*
X186250Y41250D01*
Y56250D01*
X101750Y20500D02*
Y56250D01*
D65*
X671850Y500750D02*
G03*
X678800Y493800I6950J0D01*
G01*
X731800Y486800D02*
G03*
X724850Y493750I-6950J0D01*
G01*
X678800Y316500D02*
G03*
X671850Y309550I0J-6950D01*
G01*
X724850Y316550D02*
G03*
X731800Y323500I0J6950D01*
G01*
X434350Y562750D02*
Y581500D01*
X302600Y562750D02*
X434350D01*
X302600D02*
Y646500D01*
X434350D01*
Y581500D02*
Y646500D01*
X600000Y142500D02*
X614000D01*
X649700Y86900D02*
Y239300D01*
X624300Y86900D02*
Y239300D01*
Y86900D02*
X649700D01*
X624300Y239300D02*
X649700D01*
X95000Y521500D02*
X109000D01*
X169750Y125000D02*
Y149250D01*
X197750Y12750D02*
Y26750D01*
X641800Y251150D02*
Y559150D01*
X547800Y251150D02*
X671800D01*
X547800Y559150D02*
X671800D01*
X731800Y323500D02*
Y486800D01*
X547800Y251150D02*
Y559150D01*
X547800Y335150D02*
X641800D01*
X671800Y251150D02*
Y559150D01*
X547800Y475150D02*
X641800D01*
X678800Y493800D02*
X724800D01*
X678800Y316500D02*
X724800D01*
D66*
X281982Y614711D02*
Y609632D01*
Y612172D01*
X294678D01*
X297218Y609632D01*
Y607093D01*
X294678Y604554D01*
X281982Y629946D02*
Y619789D01*
X289600D01*
X287061Y624868D01*
Y627407D01*
X289600Y629946D01*
X294678D01*
X297218Y627407D01*
Y622328D01*
X294678Y619789D01*
X495922Y541078D02*
X506078Y530922D01*
X495922D02*
X506078Y541078D01*
X495922Y536000D02*
X506078D01*
X501000Y530922D02*
Y541078D01*
X53843Y363618D02*
Y361078D01*
X58922Y356000D01*
X64000Y361078D01*
Y363618D01*
X58922Y356000D02*
Y348382D01*
X69078D02*
X74157D01*
X71617D01*
Y363618D01*
X69078Y361078D01*
X476304Y197617D02*
Y184922D01*
X478843Y182383D01*
X483922D01*
X486461Y184922D01*
Y197617D01*
X501696D02*
X491539D01*
Y190000D01*
X496618Y192539D01*
X499157D01*
X501696Y190000D01*
Y184922D01*
X499157Y182383D01*
X494078D01*
X491539Y184922D01*
X414304Y423618D02*
Y410922D01*
X416843Y408382D01*
X421922D01*
X424461Y410922D01*
Y423618D01*
X429539Y421078D02*
X432078Y423618D01*
X437157D01*
X439696Y421078D01*
Y418539D01*
X437157Y416000D01*
X434618D01*
X437157D01*
X439696Y413461D01*
Y410922D01*
X437157Y408382D01*
X432078D01*
X429539Y410922D01*
X147954Y555647D02*
Y542951D01*
X150493Y540412D01*
X155571D01*
X158111Y542951D01*
Y555647D01*
X173346Y540412D02*
X163189D01*
X173346Y550569D01*
Y553108D01*
X170807Y555647D01*
X165728D01*
X163189Y553108D01*
X246382Y204843D02*
X259078D01*
X261618Y207383D01*
Y212461D01*
X259078Y215000D01*
X246382D01*
X261618Y220078D02*
Y225157D01*
Y222618D01*
X246382D01*
X248922Y220078D01*
X404382Y312843D02*
Y323000D01*
Y317922D01*
X419618D01*
Y328078D02*
Y333157D01*
Y330617D01*
X404382D01*
X406922Y328078D01*
X336922Y364383D02*
X334382Y361843D01*
Y356765D01*
X336922Y354226D01*
X339461D01*
X342000Y356765D01*
Y361843D01*
X344539Y364383D01*
X347078D01*
X349618Y361843D01*
Y356765D01*
X347078Y354226D01*
X334382Y369461D02*
X349618D01*
Y377078D01*
X347078Y379618D01*
X344539D01*
X342000Y377078D01*
Y369461D01*
Y377078D01*
X339461Y379618D01*
X336922D01*
X334382Y377078D01*
Y369461D01*
X349618Y384696D02*
Y389774D01*
Y387235D01*
X334382D01*
X336922Y384696D01*
X326304Y525382D02*
Y540617D01*
X333922D01*
X336461Y538078D01*
Y533000D01*
X333922Y530461D01*
X326304D01*
X331382D02*
X336461Y525382D01*
X351696Y540617D02*
X346618Y538078D01*
X341539Y533000D01*
Y527922D01*
X344078Y525382D01*
X349157D01*
X351696Y527922D01*
Y530461D01*
X349157Y533000D01*
X341539D01*
X359618Y268304D02*
X344382D01*
Y275922D01*
X346922Y278461D01*
X352000D01*
X354539Y275922D01*
Y268304D01*
Y273382D02*
X359618Y278461D01*
X346922Y283539D02*
X344382Y286078D01*
Y291157D01*
X346922Y293696D01*
X349461D01*
X352000Y291157D01*
Y288617D01*
Y291157D01*
X354539Y293696D01*
X357078D01*
X359618Y291157D01*
Y286078D01*
X357078Y283539D01*
X442617Y284843D02*
X427382D01*
Y292461D01*
X429922Y295000D01*
X435000D01*
X437539Y292461D01*
Y284843D01*
Y289922D02*
X442617Y295000D01*
Y300078D02*
Y305157D01*
Y302617D01*
X427382D01*
X429922Y300078D01*
X59341Y562514D02*
X54262D01*
X56802D01*
Y549818D01*
X54262Y547279D01*
X51723D01*
X49184Y549818D01*
X72037Y547279D02*
Y562514D01*
X64419Y554896D01*
X74576D01*
X599078Y211923D02*
Y206844D01*
Y209384D01*
X611774D01*
X614313Y206844D01*
Y204305D01*
X611774Y201766D01*
X601617Y217001D02*
X599078Y219540D01*
Y224619D01*
X601617Y227158D01*
X604156D01*
X606695Y224619D01*
Y222080D01*
Y224619D01*
X609235Y227158D01*
X611774D01*
X614313Y224619D01*
Y219540D01*
X611774Y217001D01*
X599382Y150304D02*
X614618D01*
Y157922D01*
X612078Y160461D01*
X601922D01*
X599382Y157922D01*
Y150304D01*
Y175696D02*
Y165539D01*
X607000D01*
X604461Y170618D01*
Y173157D01*
X607000Y175696D01*
X612078D01*
X614618Y173157D01*
Y168078D01*
X612078Y165539D01*
X95376Y545233D02*
Y529998D01*
X102993D01*
X105533Y532537D01*
Y542694D01*
X102993Y545233D01*
X95376D01*
X118229Y529998D02*
Y545233D01*
X110611Y537616D01*
X120768D01*
X402804Y267617D02*
Y252382D01*
X410422D01*
X412961Y254922D01*
Y265078D01*
X410422Y267617D01*
X402804D01*
X428196Y252382D02*
X418039D01*
X428196Y262539D01*
Y265078D01*
X425657Y267617D01*
X420578D01*
X418039Y265078D01*
X229656Y331309D02*
Y316074D01*
X237274D01*
X239813Y318613D01*
Y328770D01*
X237274Y331309D01*
X229656D01*
X244891Y316074D02*
X249969D01*
X247430D01*
Y331309D01*
X244891Y328770D01*
X429843Y536078D02*
X427304Y538618D01*
X422226D01*
X419687Y536078D01*
Y525922D01*
X422226Y523382D01*
X427304D01*
X429843Y525922D01*
X445078Y523382D02*
X434922D01*
X445078Y533539D01*
Y536078D01*
X442539Y538618D01*
X437461D01*
X434922Y536078D01*
X457774Y523382D02*
Y538618D01*
X450157Y531000D01*
X460313D01*
X572922Y163843D02*
X570382Y161304D01*
Y156226D01*
X572922Y153687D01*
X583078D01*
X585617Y156226D01*
Y161304D01*
X583078Y163843D01*
X585617Y179078D02*
Y168922D01*
X575461Y179078D01*
X572922D01*
X570382Y176539D01*
Y171461D01*
X572922Y168922D01*
Y184157D02*
X570382Y186696D01*
Y191774D01*
X572922Y194313D01*
X583078D01*
X585617Y191774D01*
Y186696D01*
X583078Y184157D01*
X572922D01*
X71113Y312078D02*
X68574Y314618D01*
X63495D01*
X60956Y312078D01*
Y301922D01*
X63495Y299382D01*
X68574D01*
X71113Y301922D01*
X76191Y299382D02*
X81270D01*
X78730D01*
Y314618D01*
X76191Y312078D01*
X88887Y301922D02*
X91426Y299382D01*
X96505D01*
X99044Y301922D01*
Y312078D01*
X96505Y314618D01*
X91426D01*
X88887Y312078D01*
Y309539D01*
X91426Y307000D01*
X99044D01*
X552922Y26113D02*
X550382Y23574D01*
Y18495D01*
X552922Y15956D01*
X563078D01*
X565617Y18495D01*
Y23574D01*
X563078Y26113D01*
X565617Y31191D02*
Y36270D01*
Y33730D01*
X550382D01*
X552922Y31191D01*
Y43887D02*
X550382Y46426D01*
Y51505D01*
X552922Y54044D01*
X555461D01*
X558000Y51505D01*
X560539Y54044D01*
X563078D01*
X565617Y51505D01*
Y46426D01*
X563078Y43887D01*
X560539D01*
X558000Y46426D01*
X555461Y43887D01*
X552922D01*
X558000Y46426D02*
Y51505D01*
X516922Y28113D02*
X514382Y25574D01*
Y20495D01*
X516922Y17956D01*
X527078D01*
X529618Y20495D01*
Y25574D01*
X527078Y28113D01*
X529618Y33191D02*
Y38270D01*
Y35730D01*
X514382D01*
X516922Y33191D01*
X514382Y45887D02*
Y56044D01*
X516922D01*
X527078Y45887D01*
X529618D01*
X485922Y27113D02*
X483382Y24574D01*
Y19495D01*
X485922Y16956D01*
X496078D01*
X498618Y19495D01*
Y24574D01*
X496078Y27113D01*
X498618Y32191D02*
Y37270D01*
Y34731D01*
X483382D01*
X485922Y32191D01*
X483382Y55044D02*
X485922Y49966D01*
X491000Y44887D01*
X496078D01*
X498618Y47426D01*
Y52505D01*
X496078Y55044D01*
X493539D01*
X491000Y52505D01*
Y44887D01*
X463922Y119113D02*
X461382Y116574D01*
Y111495D01*
X463922Y108956D01*
X474078D01*
X476618Y111495D01*
Y116574D01*
X474078Y119113D01*
X476618Y124191D02*
Y129270D01*
Y126730D01*
X461382D01*
X463922Y124191D01*
X476618Y144505D02*
X461382D01*
X469000Y136887D01*
Y147044D01*
X321922Y277461D02*
X319382Y274922D01*
Y269843D01*
X321922Y267304D01*
X332078D01*
X334618Y269843D01*
Y274922D01*
X332078Y277461D01*
X319382Y292696D02*
Y282539D01*
X327000D01*
X324461Y287617D01*
Y290157D01*
X327000Y292696D01*
X332078D01*
X334618Y290157D01*
Y285078D01*
X332078Y282539D01*
X284843Y406618D02*
Y391382D01*
X292461D01*
X295000Y393922D01*
Y396461D01*
X292461Y399000D01*
X284843D01*
X292461D01*
X295000Y401539D01*
Y404078D01*
X292461Y406618D01*
X284843D01*
X300078Y391382D02*
X305157D01*
X302617D01*
Y406618D01*
X300078Y404078D01*
X559501Y583093D02*
X554422D01*
X556962D01*
Y570397D01*
X554422Y567858D01*
X551883D01*
X549344Y570397D01*
X574736Y567858D02*
X564579D01*
X574736Y578015D01*
Y580554D01*
X572197Y583093D01*
X567118D01*
X564579Y580554D01*
X294000Y266618D02*
X288922D01*
X291461D01*
Y253922D01*
X288922Y251383D01*
X286383D01*
X283843Y253922D01*
X299078Y251383D02*
X304157D01*
X301618D01*
Y266618D01*
X299078Y264078D01*
D87*
X162501Y416991D02*
G03*
X162501Y416991I-2000J0D01*
G01*
D88*
X172250Y245250D02*
G03*
X172250Y245250I-1000J0D01*
G01*
D89*
X215998Y157745D02*
X204002D01*
Y149748D01*
Y143750D02*
Y139751D01*
X206001Y137752D01*
X210000D01*
X211999Y139751D01*
Y143750D01*
X210000Y145749D01*
X206001D01*
X204002Y143750D01*
Y133753D02*
Y129754D01*
Y131754D01*
X215998D01*
X213999Y133753D01*
%TF.MD5,ad536623cbed4b7811c630b5663f0313*%
M02*
