%TF.GenerationSoftware,Altium Limited,Altium Designer,20.2.5 (213)*%
G04 Layer_Color=0*
%FSLAX44Y44*%
%MOMM*%
%TF.SameCoordinates,3FE501F2-1E46-4B48-ABA6-5278C61F2325*%
%TF.FilePolarity,Positive*%
%TF.FileFunction,Plated,1,2,PTH,Drill*%
%TF.Part,Single*%
G01*
G75*
%TA.AperFunction,ComponentDrill*%
%ADD110C,0.7000*%
%ADD111C,0.9000*%
%ADD112C,2.6000*%
%ADD113C,1.2000*%
%ADD114C,1.0000*%
%ADD115C,3.2000*%
%TA.AperFunction,OtherDrill,Pad Free-5 (63.2mm,4mm)*%
%ADD116C,3.2000*%
%TA.AperFunction,OtherDrill,Pad Free-4 (4mm,4mm)*%
%ADD117C,3.2000*%
%TA.AperFunction,OtherDrill,Pad Free-3 (4mm,61.1mm)*%
%ADD118C,3.2000*%
%TA.AperFunction,OtherDrill,Pad Free-2 (63.2mm,61.1mm)*%
%ADD119C,3.2000*%
%TA.AperFunction,ViaDrill,NotFilled*%
%ADD120C,0.7112*%
%ADD121C,0.4000*%
D110*
X397000Y583000D02*
D03*
D111*
X637000Y226600D02*
D03*
Y201200D02*
D03*
Y175800D02*
D03*
Y150400D02*
D03*
Y125000D02*
D03*
Y99600D02*
D03*
X60000Y424800D02*
D03*
Y450200D02*
D03*
Y475600D02*
D03*
Y501000D02*
D03*
Y526400D02*
D03*
D112*
X421642Y211724D02*
D03*
X294642D02*
D03*
D113*
X320000Y199000D02*
D03*
X345399D02*
D03*
X370797D02*
D03*
X396196D02*
D03*
X396242Y224424D02*
D03*
X370844Y224440D02*
D03*
X345445D02*
D03*
X320046D02*
D03*
D114*
X562600Y349750D02*
D03*
X591000Y363600D02*
D03*
X562600Y377450D02*
D03*
X591000Y391300D02*
D03*
X562600Y405150D02*
D03*
X591000Y419000D02*
D03*
X562600Y432850D02*
D03*
X591000Y446700D02*
D03*
X562600Y460550D02*
D03*
D115*
X576800Y530100D02*
D03*
Y280200D02*
D03*
D116*
X632000Y40000D02*
D03*
D117*
X40000D02*
D03*
D118*
X40000Y611000D02*
D03*
D119*
X632000D02*
D03*
D120*
X355400Y587650D02*
D03*
X415000Y510000D02*
D03*
X346000Y531000D02*
D03*
X507600Y220000D02*
D03*
X186000Y389000D02*
D03*
X339000Y618000D02*
D03*
X161145Y418231D02*
D03*
X255000Y341000D02*
D03*
X253100Y366100D02*
D03*
X322000Y488000D02*
D03*
X286509Y504491D02*
D03*
X174000Y545000D02*
D03*
X192000Y555102D02*
D03*
X155000Y275000D02*
D03*
X187000Y308000D02*
D03*
X220995Y269600D02*
D03*
X254000Y272000D02*
D03*
X222000Y392000D02*
D03*
X286724Y441276D02*
D03*
X173000Y450000D02*
D03*
X522000Y192000D02*
D03*
X541997Y193998D02*
D03*
X484000Y393000D02*
D03*
X189000Y499000D02*
D03*
X569000Y64000D02*
D03*
X416000Y341000D02*
D03*
X278000Y352000D02*
D03*
X117000Y426000D02*
D03*
X129000Y449000D02*
D03*
X445000Y409000D02*
D03*
X565000Y230000D02*
D03*
X468000Y185000D02*
D03*
X512000Y154000D02*
D03*
X102000Y500000D02*
D03*
X120000Y398000D02*
D03*
X271000Y268000D02*
D03*
X300000Y428000D02*
D03*
X417000Y388000D02*
D03*
X287000Y372400D02*
D03*
X540000Y137000D02*
D03*
X256000Y396000D02*
D03*
X243000Y551000D02*
D03*
X248000Y500000D02*
D03*
X593000Y117000D02*
D03*
X264000Y233000D02*
D03*
X139000Y370000D02*
D03*
X552000Y101000D02*
D03*
D121*
X124500Y226250D02*
D03*
X154750D02*
D03*
X169750D02*
D03*
X184750D02*
D03*
X124750Y209750D02*
D03*
X154750D02*
D03*
X169750D02*
D03*
X184750D02*
D03*
X109750Y189000D02*
D03*
Y164000D02*
D03*
X131500Y168500D02*
D03*
X151500Y169500D02*
D03*
X134000Y66250D02*
D03*
X151000D02*
D03*
X139750Y226250D02*
D03*
X94750Y199000D02*
D03*
X139750Y209750D02*
D03*
X114750Y24000D02*
D03*
X94750D02*
D03*
X239750Y19000D02*
D03*
X218750Y19250D02*
D03*
X134250Y48750D02*
D03*
X151250D02*
D03*
X94750Y174000D02*
D03*
Y89000D02*
D03*
%TF.MD5,829d4790492098500c2e7cee04f515d1*%
M02*
